<?xml version="1.0" encoding="utf-8"?>
<!-- Generator: Adobe Illustrator 21.0.0, SVG Export Plug-In . SVG Version: 6.00 Build 0)  -->
<svg version="1.1" id="Base_Rules_Score_Sheet" xmlns="http://www.w3.org/2000/svg" xmlns:xlink="http://www.w3.org/1999/xlink"
	 x="0px" y="0px" viewBox="0 0 396 552" style="enable-background:new 0 0 396 552;" xml:space="preserve">
<style type="text/css">
	.st0{fill:#FFFFFF;}
</style>
<g>
	<g>
		<path class="st0" d="M46.8,481.6H23c-3,0-5.5-2.5-5.5-5.5v-23.9c0-3,2.5-5.5,5.5-5.5h23.9c3,0,5.5,2.5,5.5,5.5v23.9
			C52.3,479.2,49.9,481.6,46.8,481.6z M23,448.6c-2,0-3.7,1.7-3.7,3.7v23.9c0,2,1.7,3.7,3.7,3.7h23.9c2,0,3.7-1.7,3.7-3.7v-23.9
			c0-2-1.7-3.7-3.7-3.7H23z"/>
	</g>
	<g>
		<path class="st0" d="M45.4,455.8c0,1.8-1.4,3.2-3.2,3.2s-3.2-1.4-3.2-3.2s1.4-3.2,3.2-3.2C44,452.6,45.4,454.1,45.4,455.8"/>
	</g>
	<g>
		<path class="st0" d="M45.4,464.3c0,1.8-1.4,3.2-3.2,3.2s-3.2-1.4-3.2-3.2s1.4-3.2,3.2-3.2C44,461.1,45.4,462.5,45.4,464.3"/>
	</g>
	<g>
		<path class="st0" d="M45.4,472.7c0,1.8-1.4,3.2-3.2,3.2s-3.2-1.4-3.2-3.2c0-1.8,1.4-3.2,3.2-3.2S45.4,470.9,45.4,472.7"/>
	</g>
	<g>
		<path class="st0" d="M30.9,455.8c0,1.8-1.4,3.2-3.2,3.2c-1.8,0-3.2-1.4-3.2-3.2s1.4-3.2,3.2-3.2C29.5,452.6,30.9,454.1,30.9,455.8
			"/>
	</g>
	<g>
		<path class="st0" d="M30.9,464.3c0,1.8-1.4,3.2-3.2,3.2c-1.8,0-3.2-1.4-3.2-3.2s1.4-3.2,3.2-3.2C29.5,461.1,30.9,462.5,30.9,464.3
			"/>
	</g>
	<g>
		<path class="st0" d="M30.9,472.7c0,1.8-1.4,3.2-3.2,3.2c-1.8,0-3.2-1.4-3.2-3.2c0-1.8,1.4-3.2,3.2-3.2S30.9,470.9,30.9,472.7"/>
	</g>
	<g>
		<path class="st0" d="M82.9,481.6H59c-3,0-5.5-2.5-5.5-5.5v-23.9c0-3,2.5-5.5,5.5-5.5h23.9c3,0,5.5,2.5,5.5,5.5v23.9
			C88.3,479.2,85.9,481.6,82.9,481.6z M59,448.6c-2,0-3.7,1.7-3.7,3.7v23.9c0,2,1.7,3.7,3.7,3.7h23.9c2,0,3.7-1.7,3.7-3.7v-23.9
			c0-2-1.7-3.7-3.7-3.7H59z"/>
	</g>
	<g>
		<path class="st0" d="M81.4,455.8c0,1.8-1.4,3.2-3.2,3.2c-1.8,0-3.2-1.4-3.2-3.2s1.4-3.2,3.2-3.2C80,452.6,81.4,454.1,81.4,455.8"
			/>
	</g>
	<g>
		<path class="st0" d="M81.4,464.3c0,1.8-1.4,3.2-3.2,3.2c-1.8,0-3.2-1.4-3.2-3.2s1.4-3.2,3.2-3.2C80,461.1,81.4,462.5,81.4,464.3"
			/>
	</g>
	<g>
		<path class="st0" d="M81.4,472.7c0,1.8-1.4,3.2-3.2,3.2c-1.8,0-3.2-1.4-3.2-3.2c0-1.8,1.4-3.2,3.2-3.2S81.4,470.9,81.4,472.7"/>
	</g>
	<g>
		<path class="st0" d="M66.9,455.8c0,1.8-1.4,3.2-3.2,3.2s-3.2-1.4-3.2-3.2s1.4-3.2,3.2-3.2C65.5,452.6,66.9,454.1,66.9,455.8"/>
	</g>
	<g>
		<path class="st0" d="M66.9,464.3c0,1.8-1.4,3.2-3.2,3.2s-3.2-1.4-3.2-3.2s1.4-3.2,3.2-3.2C65.5,461.1,66.9,462.5,66.9,464.3"/>
	</g>
	<g>
		<path class="st0" d="M66.9,472.7c0,1.8-1.4,3.2-3.2,3.2s-3.2-1.4-3.2-3.2c0-1.8,1.4-3.2,3.2-3.2S66.9,470.9,66.9,472.7"/>
	</g>
	<g>
		<path class="st0" d="M118.9,481.6H95c-3,0-5.5-2.5-5.5-5.5v-23.9c0-3,2.5-5.5,5.5-5.5h23.9c3,0,5.5,2.5,5.5,5.5v23.9
			C124.3,479.2,121.9,481.6,118.9,481.6z M95,448.6c-2,0-3.7,1.7-3.7,3.7v23.9c0,2,1.7,3.7,3.7,3.7h23.9c2,0,3.7-1.7,3.7-3.7v-23.9
			c0-2-1.7-3.7-3.7-3.7H95z"/>
	</g>
	<g>
		<path class="st0" d="M117.5,455.8c0,1.8-1.4,3.2-3.2,3.2c-1.8,0-3.2-1.4-3.2-3.2s1.4-3.2,3.2-3.2
			C116,452.6,117.5,454.1,117.5,455.8"/>
	</g>
	<g>
		<path class="st0" d="M117.5,464.3c0,1.8-1.4,3.2-3.2,3.2c-1.8,0-3.2-1.4-3.2-3.2s1.4-3.2,3.2-3.2
			C116,461.1,117.5,462.5,117.5,464.3"/>
	</g>
	<g>
		<path class="st0" d="M117.5,472.7c0,1.8-1.4,3.2-3.2,3.2c-1.8,0-3.2-1.4-3.2-3.2c0-1.8,1.4-3.2,3.2-3.2
			C116,469.5,117.5,470.9,117.5,472.7"/>
	</g>
	<g>
		<path class="st0" d="M102.9,455.8c0,1.8-1.4,3.2-3.2,3.2c-1.8,0-3.2-1.4-3.2-3.2s1.4-3.2,3.2-3.2
			C101.5,452.6,102.9,454.1,102.9,455.8"/>
	</g>
	<g>
		<path class="st0" d="M102.9,464.3c0,1.8-1.4,3.2-3.2,3.2c-1.8,0-3.2-1.4-3.2-3.2s1.4-3.2,3.2-3.2
			C101.5,461.1,102.9,462.5,102.9,464.3"/>
	</g>
	<g>
		<path class="st0" d="M102.9,472.7c0,1.8-1.4,3.2-3.2,3.2c-1.8,0-3.2-1.4-3.2-3.2c0-1.8,1.4-3.2,3.2-3.2S102.9,470.9,102.9,472.7"
			/>
	</g>
	<g>
		<path class="st0" d="M46.9,308.7H23.1c-3,0-5.5-2.5-5.5-5.5v-23.9c0-3,2.5-5.5,5.5-5.5H47c3,0,5.5,2.5,5.5,5.5v23.9
			C52.4,306.3,49.9,308.7,46.9,308.7z M23.1,275.7c-2,0-3.7,1.7-3.7,3.7v23.9c0,2,1.7,3.7,3.7,3.7H47c2,0,3.7-1.7,3.7-3.7v-23.9
			c0-2-1.7-3.7-3.7-3.7H23.1z"/>
	</g>
	<g>
		<path class="st0" d="M45.5,299.8c0,1.8-1.4,3.2-3.2,3.2s-3.2-1.4-3.2-3.2c0-1.8,1.4-3.2,3.2-3.2S45.5,298,45.5,299.8"/>
	</g>
	<g>
		<path class="st0" d="M31,282.9c0,1.8-1.4,3.2-3.2,3.2c-1.8,0-3.2-1.4-3.2-3.2c0-1.8,1.4-3.2,3.2-3.2C29.6,279.7,31,281.1,31,282.9
			"/>
	</g>
	<g>
		<path class="st0" d="M38.2,291.3c0,1.8-1.4,3.2-3.2,3.2s-3.2-1.4-3.2-3.2c0-1.8,1.4-3.2,3.2-3.2C36.8,288.1,38.2,289.6,38.2,291.3
			"/>
	</g>
	<g>
		<path class="st0" d="M82.9,308.7H59c-3,0-5.5-2.5-5.5-5.5v-23.9c0-3,2.5-5.5,5.5-5.5h23.9c3,0,5.5,2.5,5.5,5.5v23.9
			C88.3,306.3,85.9,308.7,82.9,308.7z M59,275.7c-2,0-3.7,1.7-3.7,3.7v23.9c0,2,1.7,3.7,3.7,3.7h23.9c2,0,3.7-1.7,3.7-3.7v-23.9
			c0-2-1.7-3.7-3.7-3.7H59z"/>
	</g>
	<g>
		<path class="st0" d="M81.4,299.8c0,1.8-1.4,3.2-3.2,3.2c-1.8,0-3.2-1.4-3.2-3.2c0-1.8,1.4-3.2,3.2-3.2
			C80,296.6,81.4,298,81.4,299.8"/>
	</g>
	<g>
		<path class="st0" d="M66.9,282.9c0,1.8-1.4,3.2-3.2,3.2s-3.2-1.4-3.2-3.2c0-1.8,1.4-3.2,3.2-3.2C65.5,279.7,66.9,281.1,66.9,282.9
			"/>
	</g>
	<g>
		<path class="st0" d="M74.1,291.3c0,1.8-1.4,3.2-3.2,3.2c-1.8,0-3.2-1.4-3.2-3.2c0-1.8,1.4-3.2,3.2-3.2
			C72.7,288.1,74.1,289.6,74.1,291.3"/>
	</g>
	<g>
		<path class="st0" d="M118.8,308.7H94.9c-3,0-5.5-2.5-5.5-5.5v-23.9c0-3,2.5-5.5,5.5-5.5h23.9c3,0,5.5,2.5,5.5,5.5v23.9
			C124.3,306.3,121.8,308.7,118.8,308.7z M94.9,275.7c-2,0-3.7,1.7-3.7,3.7v23.9c0,2,1.7,3.7,3.7,3.7h23.9c2,0,3.7-1.7,3.7-3.7
			v-23.9c0-2-1.7-3.7-3.7-3.7H94.9z"/>
	</g>
	<g>
		<path class="st0" d="M117.4,299.8c0,1.8-1.4,3.2-3.2,3.2c-1.8,0-3.2-1.4-3.2-3.2c0-1.8,1.4-3.2,3.2-3.2
			C115.9,296.6,117.4,298,117.4,299.8"/>
	</g>
	<g>
		<path class="st0" d="M102.9,282.9c0,1.8-1.4,3.2-3.2,3.2c-1.8,0-3.2-1.4-3.2-3.2c0-1.8,1.4-3.2,3.2-3.2
			C101.4,279.7,102.9,281.1,102.9,282.9"/>
	</g>
	<g>
		<path class="st0" d="M110,291.3c0,1.8-1.4,3.2-3.2,3.2c-1.8,0-3.2-1.4-3.2-3.2c0-1.8,1.4-3.2,3.2-3.2
			C108.6,288.1,110,289.6,110,291.3"/>
	</g>
	<g>
		<path class="st0" d="M244.1,119.5h-23.9c-3,0-5.5-2.5-5.5-5.5V90.1c0-3,2.5-5.5,5.5-5.5h23.9c3,0,5.5,2.5,5.5,5.5V114
			C249.6,117,247.1,119.5,244.1,119.5z M220.3,86.4c-2,0-3.7,1.7-3.7,3.7V114c0,2,1.7,3.7,3.7,3.7h23.9c2,0,3.7-1.7,3.7-3.7V90.1
			c0-2-1.7-3.7-3.7-3.7H220.3z"/>
	</g>
	<g>
		<path class="st0" d="M235.4,102.1c0,1.8-1.4,3.2-3.2,3.2s-3.2-1.4-3.2-3.2c0-1.8,1.4-3.2,3.2-3.2
			C233.9,98.9,235.4,100.3,235.4,102.1"/>
	</g>
	<g>
		<path class="st0" d="M46.9,193.4H23.1c-3,0-5.5-2.5-5.5-5.5V164c0-3,2.5-5.5,5.5-5.5H47c3,0,5.5,2.5,5.5,5.5v24
			C52.4,191,49.9,193.4,46.9,193.4z M23.1,160.4c-2,0-3.7,1.7-3.7,3.7V188c0,2,1.7,3.7,3.7,3.7H47c2,0,3.7-1.7,3.7-3.7v-23.9
			c0-2-1.7-3.7-3.7-3.7L23.1,160.4L23.1,160.4z"/>
	</g>
	<g>
		<path class="st0" d="M38.2,176c0,1.8-1.4,3.2-3.2,3.2s-3.2-1.4-3.2-3.2s1.4-3.2,3.2-3.2C36.8,172.9,38.2,174.3,38.2,176"/>
	</g>
	<g>
		<path class="st0" d="M82.9,193.4H59c-3,0-5.5-2.5-5.5-5.5V164c0-3,2.5-5.5,5.5-5.5h23.9c3,0,5.5,2.5,5.5,5.5v24
			C88.3,191,85.9,193.4,82.9,193.4z M59,160.4c-2,0-3.7,1.7-3.7,3.7V188c0,2,1.7,3.7,3.7,3.7h23.9c2,0,3.7-1.7,3.7-3.7v-23.9
			c0-2-1.7-3.7-3.7-3.7L59,160.4L59,160.4z"/>
	</g>
	<g>
		<path class="st0" d="M74.1,176c0,1.8-1.4,3.2-3.2,3.2c-1.8,0-3.2-1.4-3.2-3.2s1.4-3.2,3.2-3.2C72.7,172.9,74.1,174.3,74.1,176"/>
	</g>
	<g>
		<path class="st0" d="M118.8,193.4H94.9c-3,0-5.5-2.5-5.5-5.5V164c0-3,2.5-5.5,5.5-5.5h23.9c3,0,5.5,2.5,5.5,5.5v24
			C124.3,191,121.8,193.4,118.8,193.4z M94.9,160.4c-2,0-3.7,1.7-3.7,3.7V188c0,2,1.7,3.7,3.7,3.7h23.9c2,0,3.7-1.7,3.7-3.7v-23.9
			c0-2-1.7-3.7-3.7-3.7L94.9,160.4L94.9,160.4z"/>
	</g>
	<g>
		<path class="st0" d="M110,176c0,1.8-1.4,3.2-3.2,3.2c-1.8,0-3.2-1.4-3.2-3.2s1.4-3.2,3.2-3.2C108.6,172.9,110,174.3,110,176"/>
	</g>
	<g>
		<path class="st0" d="M46.8,251.1H23c-3,0-5.5-2.5-5.5-5.5v-23.9c0-3,2.5-5.5,5.5-5.5h23.9c3,0,5.5,2.5,5.5,5.5v23.9
			C52.3,248.6,49.9,251.1,46.8,251.1z M23,218c-2,0-3.7,1.7-3.7,3.7v23.9c0,2,1.7,3.7,3.7,3.7h23.9c2,0,3.7-1.7,3.7-3.7v-23.9
			c0-2-1.7-3.7-3.7-3.7H23z"/>
	</g>
	<g>
		<path class="st0" d="M45.4,242.1c0,1.8-1.4,3.2-3.2,3.2s-3.2-1.4-3.2-3.2s1.4-3.2,3.2-3.2C44,238.9,45.4,240.3,45.4,242.1"/>
	</g>
	<g>
		<path class="st0" d="M30.9,225.3c0,1.8-1.4,3.2-3.2,3.2c-1.8,0-3.2-1.4-3.2-3.2s1.4-3.2,3.2-3.2S30.9,223.5,30.9,225.3"/>
	</g>
	<g>
		<path class="st0" d="M82.9,251.1H59c-3,0-5.5-2.5-5.5-5.5v-23.9c0-3,2.5-5.5,5.5-5.5h23.9c3,0,5.5,2.5,5.5,5.5v23.9
			C88.3,248.6,85.9,251.1,82.9,251.1z M59,218c-2,0-3.7,1.7-3.7,3.7v23.9c0,2,1.7,3.7,3.7,3.7h23.9c2,0,3.7-1.7,3.7-3.7v-23.9
			c0-2-1.7-3.7-3.7-3.7H59z"/>
	</g>
	<g>
		<path class="st0" d="M81.4,242.1c0,1.8-1.4,3.2-3.2,3.2c-1.8,0-3.2-1.4-3.2-3.2s1.4-3.2,3.2-3.2C80,238.9,81.4,240.3,81.4,242.1"
			/>
	</g>
	<g>
		<path class="st0" d="M66.9,225.3c0,1.8-1.4,3.2-3.2,3.2s-3.2-1.4-3.2-3.2s1.4-3.2,3.2-3.2S66.9,223.5,66.9,225.3"/>
	</g>
	<g>
		<path class="st0" d="M118.8,251.1H94.9c-3,0-5.5-2.5-5.5-5.5v-23.9c0-3,2.5-5.5,5.5-5.5h23.9c3,0,5.5,2.5,5.5,5.5v23.9
			C124.3,248.6,121.8,251.1,118.8,251.1z M94.9,218c-2,0-3.7,1.7-3.7,3.7v23.9c0,2,1.7,3.7,3.7,3.7h23.9c2,0,3.7-1.7,3.7-3.7v-23.9
			c0-2-1.7-3.7-3.7-3.7H94.9z"/>
	</g>
	<g>
		<path class="st0" d="M117.4,242.1c0,1.8-1.4,3.2-3.2,3.2c-1.8,0-3.2-1.4-3.2-3.2s1.4-3.2,3.2-3.2
			C115.9,238.9,117.4,240.3,117.4,242.1"/>
	</g>
	<g>
		<path class="st0" d="M102.9,225.3c0,1.8-1.4,3.2-3.2,3.2c-1.8,0-3.2-1.4-3.2-3.2s1.4-3.2,3.2-3.2
			C101.4,222.1,102.9,223.5,102.9,225.3"/>
	</g>
	<g>
		<path class="st0" d="M46.2,119.5H22.3c-3,0-5.5-2.5-5.5-5.5V90.1c0-3,2.5-5.5,5.5-5.5h23.9c3,0,5.5,2.5,5.5,5.5V114
			C51.7,117,49.2,119.5,46.2,119.5z M22.3,86.4c-2,0-3.7,1.7-3.7,3.7V114c0,2,1.7,3.7,3.7,3.7h23.9c2,0,3.7-1.7,3.7-3.7V90.1
			c0-2-1.7-3.7-3.7-3.7H22.3z"/>
	</g>
	<g>
		<path class="st0" d="M44.8,93.6c0,1.8-1.4,3.2-3.2,3.2s-3.2-1.4-3.2-3.2c0-1.8,1.4-3.2,3.2-3.2C43.4,90.4,44.8,91.9,44.8,93.6"/>
	</g>
	<g>
		<path class="st0" d="M44.8,110.5c0,1.8-1.4,3.2-3.2,3.2s-3.2-1.4-3.2-3.2c0-1.8,1.4-3.2,3.2-3.2C43.4,107.3,44.8,108.7,44.8,110.5
			"/>
	</g>
	<g>
		<path class="st0" d="M30.3,93.6c0,1.8-1.4,3.2-3.2,3.2c-1.8,0-3.2-1.4-3.2-3.2c0-1.8,1.4-3.2,3.2-3.2S30.3,91.9,30.3,93.6"/>
	</g>
	<g>
		<path class="st0" d="M37.5,102.1c0,1.8-1.4,3.2-3.2,3.2s-3.2-1.4-3.2-3.2c0-1.8,1.4-3.2,3.2-3.2C36,98.9,37.5,100.3,37.5,102.1"/>
	</g>
	<g>
		<path class="st0" d="M30.3,110.5c0,1.8-1.4,3.2-3.2,3.2c-1.8,0-3.2-1.4-3.2-3.2c0-1.8,1.4-3.2,3.2-3.2S30.3,108.7,30.3,110.5"/>
	</g>
	<g>
		<path class="st0" d="M46.8,424H23c-3,0-5.5-2.5-5.5-5.5v-23.9c0-3,2.5-5.5,5.5-5.5h23.9c3,0,5.5,2.5,5.5,5.5v23.9
			C52.3,421.6,49.9,424,46.8,424z M23,391c-2,0-3.7,1.7-3.7,3.7v23.9c0,2,1.7,3.7,3.7,3.7h23.9c2,0,3.7-1.7,3.7-3.7v-23.9
			c0-2-1.7-3.7-3.7-3.7H23z"/>
	</g>
	<g>
		<path class="st0" d="M45.4,398.2c0,1.8-1.4,3.2-3.2,3.2S39,400,39,398.2c0-1.8,1.4-3.2,3.2-3.2S45.4,396.4,45.4,398.2"/>
	</g>
	<g>
		<path class="st0" d="M45.4,415c0,1.8-1.4,3.2-3.2,3.2S39,416.8,39,415c0-1.8,1.4-3.2,3.2-3.2C44,411.9,45.4,413.3,45.4,415"/>
	</g>
	<g>
		<path class="st0" d="M30.9,398.2c0,1.8-1.4,3.2-3.2,3.2c-1.8,0-3.2-1.4-3.2-3.2c0-1.8,1.4-3.2,3.2-3.2S30.9,396.4,30.9,398.2"/>
	</g>
	<g>
		<path class="st0" d="M38.1,406.6c0,1.8-1.4,3.2-3.2,3.2s-3.2-1.4-3.2-3.2c0-1.8,1.4-3.2,3.2-3.2S38.1,404.8,38.1,406.6"/>
	</g>
	<g>
		<path class="st0" d="M30.9,415c0,1.8-1.4,3.2-3.2,3.2c-1.8,0-3.2-1.4-3.2-3.2c0-1.8,1.4-3.2,3.2-3.2
			C29.5,411.9,30.9,413.3,30.9,415"/>
	</g>
	<g>
		<path class="st0" d="M82.9,424H59c-3,0-5.5-2.5-5.5-5.5v-23.9c0-3,2.5-5.5,5.5-5.5h23.9c3,0,5.5,2.5,5.5,5.5v23.9
			C88.3,421.6,85.9,424,82.9,424z M59,391c-2,0-3.7,1.7-3.7,3.7v23.9c0,2,1.7,3.7,3.7,3.7h23.9c2,0,3.7-1.7,3.7-3.7v-23.9
			c0-2-1.7-3.7-3.7-3.7H59z"/>
	</g>
	<g>
		<path class="st0" d="M81.4,398.2c0,1.8-1.4,3.2-3.2,3.2c-1.8,0-3.2-1.4-3.2-3.2c0-1.8,1.4-3.2,3.2-3.2S81.4,396.4,81.4,398.2"/>
	</g>
	<g>
		<path class="st0" d="M81.4,415c0,1.8-1.4,3.2-3.2,3.2c-1.8,0-3.2-1.4-3.2-3.2c0-1.8,1.4-3.2,3.2-3.2C80,411.9,81.4,413.3,81.4,415
			"/>
	</g>
	<g>
		<path class="st0" d="M66.9,398.2c0,1.8-1.4,3.2-3.2,3.2s-3.2-1.4-3.2-3.2c0-1.8,1.4-3.2,3.2-3.2S66.9,396.4,66.9,398.2"/>
	</g>
	<g>
		<path class="st0" d="M74.1,406.6c0,1.8-1.4,3.2-3.2,3.2c-1.8,0-3.2-1.4-3.2-3.2c0-1.8,1.4-3.2,3.2-3.2S74.1,404.8,74.1,406.6"/>
	</g>
	<g>
		<path class="st0" d="M66.9,415c0,1.8-1.4,3.2-3.2,3.2s-3.2-1.4-3.2-3.2c0-1.8,1.4-3.2,3.2-3.2C65.5,411.9,66.9,413.3,66.9,415"/>
	</g>
	<g>
		<path class="st0" d="M118.9,424H95c-3,0-5.5-2.5-5.5-5.5v-23.9c0-3,2.5-5.5,5.5-5.5h23.9c3,0,5.5,2.5,5.5,5.5v23.9
			C124.3,421.6,121.9,424,118.9,424z M95,391c-2,0-3.7,1.7-3.7,3.7v23.9c0,2,1.7,3.7,3.7,3.7h23.9c2,0,3.7-1.7,3.7-3.7v-23.9
			c0-2-1.7-3.7-3.7-3.7H95z"/>
	</g>
	<g>
		<path class="st0" d="M117.5,398.2c0,1.8-1.4,3.2-3.2,3.2c-1.8,0-3.2-1.4-3.2-3.2c0-1.8,1.4-3.2,3.2-3.2
			C116,395,117.5,396.4,117.5,398.2"/>
	</g>
	<g>
		<path class="st0" d="M117.5,415c0,1.8-1.4,3.2-3.2,3.2c-1.8,0-3.2-1.4-3.2-3.2c0-1.8,1.4-3.2,3.2-3.2
			C116,411.9,117.5,413.3,117.5,415"/>
	</g>
	<g>
		<path class="st0" d="M102.9,398.2c0,1.8-1.4,3.2-3.2,3.2c-1.8,0-3.2-1.4-3.2-3.2c0-1.8,1.4-3.2,3.2-3.2S102.9,396.4,102.9,398.2"
			/>
	</g>
	<g>
		<path class="st0" d="M110.1,406.6c0,1.8-1.4,3.2-3.2,3.2c-1.8,0-3.2-1.4-3.2-3.2c0-1.8,1.4-3.2,3.2-3.2S110.1,404.8,110.1,406.6"
			/>
	</g>
	<g>
		<path class="st0" d="M102.9,415c0,1.8-1.4,3.2-3.2,3.2c-1.8,0-3.2-1.4-3.2-3.2c0-1.8,1.4-3.2,3.2-3.2
			C101.5,411.9,102.9,413.3,102.9,415"/>
	</g>
	<g>
		<path class="st0" d="M46.8,366.4H23c-3,0-5.5-2.5-5.5-5.5V337c0-3,2.5-5.5,5.5-5.5h23.9c3,0,5.5,2.5,5.5,5.5v23.9
			C52.3,363.9,49.9,366.4,46.8,366.4z M23,333.3c-2,0-3.7,1.7-3.7,3.7v23.9c0,2,1.7,3.7,3.7,3.7h23.9c2,0,3.7-1.7,3.7-3.7V337
			c0-2-1.7-3.7-3.7-3.7H23z"/>
	</g>
	<g>
		<path class="st0" d="M45.4,341.4c0,1.8-1.4,3.2-3.2,3.2s-3.2-1.4-3.2-3.2c0-1.8,1.4-3.2,3.2-3.2C44,338.2,45.4,339.7,45.4,341.4"
			/>
	</g>
	<g>
		<path class="st0" d="M45.4,355.6c0,1.8-1.4,3.2-3.2,3.2s-3.2-1.4-3.2-3.2c0-1.8,1.4-3.2,3.2-3.2S45.4,353.9,45.4,355.6"/>
	</g>
	<g>
		<path class="st0" d="M30.9,341.4c0,1.8-1.4,3.2-3.2,3.2c-1.8,0-3.2-1.4-3.2-3.2c0-1.8,1.4-3.2,3.2-3.2
			C29.5,338.2,30.9,339.7,30.9,341.4"/>
	</g>
	<g>
		<path class="st0" d="M30.9,355.6c0,1.8-1.4,3.2-3.2,3.2c-1.8,0-3.2-1.4-3.2-3.2c0-1.8,1.4-3.2,3.2-3.2S30.9,353.9,30.9,355.6"/>
	</g>
	<g>
		<path class="st0" d="M82.9,366.4H59c-3,0-5.5-2.5-5.5-5.5V337c0-3,2.5-5.5,5.5-5.5h23.9c3,0,5.5,2.5,5.5,5.5v23.9
			C88.3,363.9,85.9,366.4,82.9,366.4z M59,333.3c-2,0-3.7,1.7-3.7,3.7v23.9c0,2,1.7,3.7,3.7,3.7h23.9c2,0,3.7-1.7,3.7-3.7V337
			c0-2-1.7-3.7-3.7-3.7H59z"/>
	</g>
	<g>
		<path class="st0" d="M81.4,341.4c0,1.8-1.4,3.2-3.2,3.2c-1.8,0-3.2-1.4-3.2-3.2c0-1.8,1.4-3.2,3.2-3.2
			C80,338.2,81.4,339.7,81.4,341.4"/>
	</g>
	<g>
		<path class="st0" d="M81.4,355.6c0,1.8-1.4,3.2-3.2,3.2c-1.8,0-3.2-1.4-3.2-3.2c0-1.8,1.4-3.2,3.2-3.2S81.4,353.9,81.4,355.6"/>
	</g>
	<g>
		<path class="st0" d="M66.9,341.4c0,1.8-1.4,3.2-3.2,3.2s-3.2-1.4-3.2-3.2c0-1.8,1.4-3.2,3.2-3.2C65.5,338.2,66.9,339.7,66.9,341.4
			"/>
	</g>
	<g>
		<path class="st0" d="M66.9,355.6c0,1.8-1.4,3.2-3.2,3.2s-3.2-1.4-3.2-3.2c0-1.8,1.4-3.2,3.2-3.2S66.9,353.9,66.9,355.6"/>
	</g>
	<g>
		<path class="st0" d="M118.9,366.4H95c-3,0-5.5-2.5-5.5-5.5V337c0-3,2.5-5.5,5.5-5.5h23.9c3,0,5.5,2.5,5.5,5.5v23.9
			C124.3,363.9,121.9,366.4,118.9,366.4z M95,333.3c-2,0-3.7,1.7-3.7,3.7v23.9c0,2,1.7,3.7,3.7,3.7h23.9c2,0,3.7-1.7,3.7-3.7V337
			c0-2-1.7-3.7-3.7-3.7H95z"/>
	</g>
	<g>
		<path class="st0" d="M117.5,341.4c0,1.8-1.4,3.2-3.2,3.2c-1.8,0-3.2-1.4-3.2-3.2c0-1.8,1.4-3.2,3.2-3.2
			C116,338.2,117.5,339.7,117.5,341.4"/>
	</g>
	<g>
		<path class="st0" d="M117.5,355.6c0,1.8-1.4,3.2-3.2,3.2c-1.8,0-3.2-1.4-3.2-3.2c0-1.8,1.4-3.2,3.2-3.2
			C116,352.4,117.5,353.9,117.5,355.6"/>
	</g>
	<g>
		<path class="st0" d="M102.9,341.4c0,1.8-1.4,3.2-3.2,3.2c-1.8,0-3.2-1.4-3.2-3.2c0-1.8,1.4-3.2,3.2-3.2
			C101.5,338.2,102.9,339.7,102.9,341.4"/>
	</g>
	<g>
		<path class="st0" d="M102.9,355.6c0,1.8-1.4,3.2-3.2,3.2c-1.8,0-3.2-1.4-3.2-3.2c0-1.8,1.4-3.2,3.2-3.2S102.9,353.9,102.9,355.6"
			/>
	</g>
</g>
<g>
	<path class="st0" d="M137.2,184.8c-0.7-0.8-1.1-1.9-1.1-3.4V180h2.7v1.6c0,1.2,0.5,1.8,1.5,1.8c0.5,0,0.9-0.2,1.1-0.5
		c0.3-0.3,0.4-0.8,0.4-1.6v-1.5c0-0.8-0.1-1.4-0.4-1.8c-0.3-0.4-0.8-0.5-1.4-0.5h-1v-2.6h1c0.6,0,1-0.1,1.3-0.4
		c0.3-0.3,0.4-0.8,0.4-1.5v-1.3c0-0.6-0.1-1.1-0.4-1.4c-0.3-0.3-0.6-0.4-1-0.4c-0.9,0-1.4,0.6-1.4,1.7v1.2h-2.7v-1
		c0-1.5,0.4-2.6,1.1-3.4c0.7-0.8,1.8-1.2,3.1-1.2c1.4,0,2.4,0.4,3.1,1.2c0.7,0.8,1.1,1.9,1.1,3.3v0.6c0,1-0.2,1.8-0.5,2.4
		c-0.3,0.6-0.8,1-1.5,1.3v0.1c0.7,0.3,1.3,0.7,1.6,1.4s0.5,1.4,0.5,2.4v1.6c0,1.5-0.4,2.6-1.1,3.3c-0.7,0.8-1.8,1.2-3.2,1.2
		S137.9,185.6,137.2,184.8z"/>
	<path class="st0" d="M147.7,184.8c-0.7-0.8-1.1-1.9-1.1-3.4v-9.6c0-1.5,0.4-2.6,1.1-3.4c0.7-0.8,1.8-1.2,3.2-1.2s2.5,0.4,3.2,1.2
		s1.1,1.9,1.1,3.4v9.6c0,1.5-0.4,2.6-1.1,3.4c-0.7,0.8-1.8,1.2-3.2,1.2S148.4,185.6,147.7,184.8z M152.4,181.6v-9.9
		c0-1.2-0.5-1.8-1.5-1.8s-1.5,0.6-1.5,1.8v9.9c0,1.2,0.5,1.8,1.5,1.8S152.4,182.8,152.4,181.6z"/>
	<path class="st0" d="M158.1,184.8c-0.7-0.8-1.1-1.9-1.1-3.4v-9.6c0-1.5,0.4-2.6,1.1-3.4c0.7-0.8,1.8-1.2,3.2-1.2s2.5,0.4,3.2,1.2
		s1.1,1.9,1.1,3.4v9.6c0,1.5-0.4,2.6-1.1,3.4c-0.7,0.8-1.8,1.2-3.2,1.2C159.9,186,158.8,185.6,158.1,184.8z M162.8,181.6v-9.9
		c0-1.2-0.5-1.8-1.5-1.8s-1.5,0.6-1.5,1.8v9.9c0,1.2,0.5,1.8,1.5,1.8S162.8,182.8,162.8,181.6z"/>
</g>
<g>
	<path class="st0" d="M266,96.6h-3v-2c0.8,0,1.5-0.1,2-0.2s0.9-0.4,1.2-0.7c0.3-0.3,0.6-0.8,0.8-1.4h1.9v18.2H266V96.6z"/>
	<path class="st0" d="M273.3,109.6c-0.7-0.8-1.1-1.9-1.1-3.4v-9.6c0-1.5,0.4-2.6,1.1-3.4s1.8-1.2,3.2-1.2c1.4,0,2.5,0.4,3.2,1.2
		c0.7,0.8,1.1,1.9,1.1,3.4v9.6c0,1.5-0.4,2.6-1.1,3.4s-1.8,1.2-3.2,1.2C275.1,110.7,274.1,110.3,273.3,109.6z M278,106.4v-9.9
		c0-1.2-0.5-1.8-1.5-1.8s-1.5,0.6-1.5,1.8v9.9c0,1.2,0.5,1.8,1.5,1.8S278,107.5,278,106.4z"/>
	<path class="st0" d="M283.7,109.6c-0.7-0.8-1.1-1.9-1.1-3.4v-9.6c0-1.5,0.4-2.6,1.1-3.4s1.8-1.2,3.2-1.2c1.4,0,2.5,0.4,3.2,1.2
		c0.7,0.8,1.1,1.9,1.1,3.4v9.6c0,1.5-0.4,2.6-1.1,3.4s-1.8,1.2-3.2,1.2C285.5,110.7,284.5,110.3,283.7,109.6z M288.4,106.4v-9.9
		c0-1.2-0.5-1.8-1.5-1.8s-1.5,0.6-1.5,1.8v9.9c0,1.2,0.5,1.8,1.5,1.8S288.4,107.5,288.4,106.4z"/>
</g>
<g>
	<path class="st0" d="M62.8,109.6c-0.7-0.8-1.1-1.9-1.1-3.4v-1.4h2.7v1.6c0,1.2,0.5,1.8,1.5,1.8s1.5-0.6,1.5-1.8v-4.1
		c0-1.2-0.5-1.8-1.5-1.8s-1.5,0.6-1.5,1.8v0.2h-2.7l0.5-10.2h7.5v2.6h-5l-0.2,4.3h0.1c0.5-0.9,1.4-1.3,2.5-1.3c1,0,1.8,0.4,2.4,1.1
		c0.5,0.7,0.8,1.7,0.8,3.1v4.1c0,1.5-0.4,2.6-1.1,3.4s-1.8,1.2-3.2,1.2S63.5,110.4,62.8,109.6z"/>
	<path class="st0" d="M73.1,109.6c-0.7-0.8-1.1-1.9-1.1-3.4v-9.6c0-1.5,0.4-2.6,1.1-3.4s1.8-1.2,3.2-1.2c1.4,0,2.5,0.4,3.2,1.2
		c0.7,0.8,1.1,1.9,1.1,3.4v9.6c0,1.5-0.4,2.6-1.1,3.4s-1.8,1.2-3.2,1.2C74.9,110.7,73.9,110.3,73.1,109.6z M77.8,106.4v-9.9
		c0-1.2-0.5-1.8-1.5-1.8s-1.5,0.6-1.5,1.8v9.9c0,1.2,0.5,1.8,1.5,1.8S77.8,107.5,77.8,106.4z"/>
</g>
<g>
	<path class="st0" d="M342.3,171.8h-3v-2c0.8,0,1.5-0.1,2-0.2c0.5-0.1,0.9-0.4,1.2-0.7c0.3-0.3,0.6-0.8,0.8-1.4h1.9v18.2h-2.9V171.8
		z"/>
	<path class="st0" d="M349.6,184.8c-0.7-0.8-1.1-1.9-1.1-3.4v-9.6c0-1.5,0.4-2.6,1.1-3.4c0.7-0.8,1.8-1.2,3.2-1.2
		c1.4,0,2.5,0.4,3.2,1.2s1.1,1.9,1.1,3.4v9.6c0,1.5-0.4,2.6-1.1,3.4c-0.7,0.8-1.8,1.2-3.2,1.2C351.5,186,350.4,185.6,349.6,184.8z
		 M354.4,181.6v-9.9c0-1.2-0.5-1.8-1.5-1.8s-1.5,0.6-1.5,1.8v9.9c0,1.2,0.5,1.8,1.5,1.8S354.4,182.8,354.4,181.6z"/>
	<path class="st0" d="M360,184.8c-0.7-0.8-1.1-1.9-1.1-3.4v-9.6c0-1.5,0.4-2.6,1.1-3.4c0.7-0.8,1.8-1.2,3.2-1.2
		c1.4,0,2.5,0.4,3.2,1.2s1.1,1.9,1.1,3.4v9.6c0,1.5-0.4,2.6-1.1,3.4c-0.7,0.8-1.8,1.2-3.2,1.2C361.9,186,360.8,185.6,360,184.8z
		 M364.8,181.6v-9.9c0-1.2-0.5-1.8-1.5-1.8s-1.5,0.6-1.5,1.8v9.9c0,1.2,0.5,1.8,1.5,1.8S364.8,182.8,364.8,181.6z"/>
	<path class="st0" d="M370.4,184.8c-0.7-0.8-1.1-1.9-1.1-3.4v-9.6c0-1.5,0.4-2.6,1.1-3.4c0.7-0.8,1.8-1.2,3.2-1.2
		c1.4,0,2.5,0.4,3.2,1.2s1.1,1.9,1.1,3.4v9.6c0,1.5-0.4,2.6-1.1,3.4c-0.7,0.8-1.8,1.2-3.2,1.2C372.3,186,371.2,185.6,370.4,184.8z
		 M375.2,181.6v-9.9c0-1.2-0.5-1.8-1.5-1.8s-1.5,0.6-1.5,1.8v9.9c0,1.2,0.5,1.8,1.5,1.8S375.2,182.8,375.2,181.6z"/>
</g>
<g>
	<path class="st0" d="M338.3,240.1c0-1.3,0.2-2.4,0.6-3.3s1.2-2,2.2-3.1c1.1-1.1,1.8-2.1,2.2-2.9c0.4-0.8,0.6-1.6,0.6-2.5
		c0-0.8-0.1-1.3-0.4-1.6s-0.6-0.5-1.1-0.5c-1,0-1.5,0.6-1.5,1.8v1.9h-2.7v-1.8c0-1.5,0.4-2.6,1.1-3.4c0.7-0.8,1.8-1.2,3.2-1.2
		c1.4,0,2.4,0.4,3.2,1.2c0.7,0.8,1.1,1.9,1.1,3.4c0,1.1-0.3,2.2-0.8,3.3s-1.4,2.3-2.7,3.6c-0.8,0.9-1.4,1.6-1.7,2.2
		c-0.3,0.6-0.4,1.2-0.4,1.8v0.4h5.4v2.6h-8.3L338.3,240.1L338.3,240.1z"/>
	<path class="st0" d="M349.6,241.2c-0.7-0.8-1.1-1.9-1.1-3.4v-9.6c0-1.5,0.4-2.6,1.1-3.4c0.7-0.8,1.8-1.2,3.2-1.2
		c1.4,0,2.5,0.4,3.2,1.2s1.1,1.9,1.1,3.4v9.6c0,1.5-0.4,2.6-1.1,3.4c-0.7,0.8-1.8,1.2-3.2,1.2C351.5,242.4,350.4,242,349.6,241.2z
		 M354.4,238v-10c0-1.2-0.5-1.8-1.5-1.8s-1.5,0.6-1.5,1.8v9.9c0,1.2,0.5,1.8,1.5,1.8S354.4,239.2,354.4,238z"/>
	<path class="st0" d="M360,241.2c-0.7-0.8-1.1-1.9-1.1-3.4v-9.6c0-1.5,0.4-2.6,1.1-3.4c0.7-0.8,1.8-1.2,3.2-1.2
		c1.4,0,2.5,0.4,3.2,1.2s1.1,1.9,1.1,3.4v9.6c0,1.5-0.4,2.6-1.1,3.4c-0.7,0.8-1.8,1.2-3.2,1.2C361.9,242.4,360.8,242,360,241.2z
		 M364.8,238v-10c0-1.2-0.5-1.8-1.5-1.8s-1.5,0.6-1.5,1.8v9.9c0,1.2,0.5,1.8,1.5,1.8S364.8,239.2,364.8,238z"/>
	<path class="st0" d="M370.4,241.2c-0.7-0.8-1.1-1.9-1.1-3.4v-9.6c0-1.5,0.4-2.6,1.1-3.4c0.7-0.8,1.8-1.2,3.2-1.2
		c1.4,0,2.5,0.4,3.2,1.2s1.1,1.9,1.1,3.4v9.6c0,1.5-0.4,2.6-1.1,3.4c-0.7,0.8-1.8,1.2-3.2,1.2C372.3,242.4,371.2,242,370.4,241.2z
		 M375.2,238v-10c0-1.2-0.5-1.8-1.5-1.8s-1.5,0.6-1.5,1.8v9.9c0,1.2,0.5,1.8,1.5,1.8S375.2,239.2,375.2,238z"/>
</g>
<g>
	<path class="st0" d="M339.2,298.8c-0.7-0.8-1.1-1.9-1.1-3.4V294h2.7v1.6c0,1.2,0.5,1.8,1.5,1.8c0.5,0,0.9-0.2,1.1-0.5
		c0.3-0.3,0.4-0.8,0.4-1.6v-1.5c0-0.8-0.1-1.4-0.4-1.8s-0.8-0.5-1.4-0.5h-1V289h1c0.6,0,1-0.1,1.3-0.4s0.4-0.8,0.4-1.5v-1.3
		c0-0.6-0.1-1.1-0.4-1.4s-0.6-0.4-1-0.4c-0.9,0-1.4,0.6-1.4,1.7v1.2h-2.7v-1c0-1.5,0.4-2.6,1.1-3.4s1.8-1.2,3.1-1.2
		c1.4,0,2.4,0.4,3.1,1.2c0.7,0.8,1.1,1.9,1.1,3.3v0.6c0,1-0.2,1.8-0.5,2.4s-0.8,1-1.5,1.3v0.1c0.7,0.3,1.3,0.7,1.6,1.4
		s0.5,1.4,0.5,2.4v1.6c0,1.5-0.4,2.6-1.1,3.3c-0.7,0.8-1.8,1.2-3.2,1.2S339.9,299.6,339.2,298.8z"/>
	<path class="st0" d="M349.6,298.8c-0.7-0.8-1.1-1.9-1.1-3.4v-9.6c0-1.5,0.4-2.6,1.1-3.4s1.8-1.2,3.2-1.2c1.4,0,2.5,0.4,3.2,1.2
		c0.7,0.8,1.1,1.9,1.1,3.4v9.6c0,1.5-0.4,2.6-1.1,3.4s-1.8,1.2-3.2,1.2C351.5,300,350.4,299.6,349.6,298.8z M354.4,295.6v-9.9
		c0-1.2-0.5-1.8-1.5-1.8s-1.5,0.6-1.5,1.8v9.9c0,1.2,0.5,1.8,1.5,1.8S354.4,296.8,354.4,295.6z"/>
	<path class="st0" d="M360,298.8c-0.7-0.8-1.1-1.9-1.1-3.4v-9.6c0-1.5,0.4-2.6,1.1-3.4s1.8-1.2,3.2-1.2c1.4,0,2.5,0.4,3.2,1.2
		c0.7,0.8,1.1,1.9,1.1,3.4v9.6c0,1.5-0.4,2.6-1.1,3.4s-1.8,1.2-3.2,1.2C361.9,300,360.8,299.6,360,298.8z M364.8,295.6v-9.9
		c0-1.2-0.5-1.8-1.5-1.8s-1.5,0.6-1.5,1.8v9.9c0,1.2,0.5,1.8,1.5,1.8S364.8,296.8,364.8,295.6z"/>
	<path class="st0" d="M370.4,298.8c-0.7-0.8-1.1-1.9-1.1-3.4v-9.6c0-1.5,0.4-2.6,1.1-3.4s1.8-1.2,3.2-1.2c1.4,0,2.5,0.4,3.2,1.2
		c0.7,0.8,1.1,1.9,1.1,3.4v9.6c0,1.5-0.4,2.6-1.1,3.4s-1.8,1.2-3.2,1.2C372.3,300,371.2,299.6,370.4,298.8z M375.2,295.6v-9.9
		c0-1.2-0.5-1.8-1.5-1.8s-1.5,0.6-1.5,1.8v9.9c0,1.2,0.5,1.8,1.5,1.8S375.2,296.8,375.2,295.6z"/>
</g>
<g>
	<path class="st0" d="M342.3,344.9h-3v-2c0.8,0,1.5-0.1,2-0.2s0.9-0.4,1.2-0.7c0.3-0.3,0.6-0.8,0.8-1.4h1.9v18.2h-2.9V344.9z"/>
	<path class="st0" d="M349.8,357.9c-0.7-0.8-1.1-1.9-1.1-3.4V353h2.7v1.6c0,1.2,0.5,1.8,1.5,1.8s1.5-0.6,1.5-1.8v-4.1
		c0-1.2-0.5-1.8-1.5-1.8s-1.5,0.6-1.5,1.8v0.2h-2.7l0.5-10.2h7.5v2.6h-5l-0.2,4.3h0.1c0.5-0.9,1.4-1.3,2.5-1.3c1,0,1.8,0.4,2.4,1.1
		s0.8,1.7,0.8,3.1v4.1c0,1.5-0.4,2.6-1.1,3.4s-1.8,1.2-3.2,1.2S350.5,358.7,349.8,357.9z"/>
	<path class="st0" d="M360,357.9c-0.7-0.8-1.1-1.9-1.1-3.4v-9.6c0-1.5,0.4-2.6,1.1-3.4s1.8-1.2,3.2-1.2c1.4,0,2.5,0.4,3.2,1.2
		c0.7,0.8,1.1,1.9,1.1,3.4v9.6c0,1.5-0.4,2.6-1.1,3.4s-1.8,1.2-3.2,1.2C361.9,359,360.8,358.6,360,357.9z M364.8,354.7v-9.9
		c0-1.2-0.5-1.8-1.5-1.8s-1.5,0.6-1.5,1.8v9.9c0,1.2,0.5,1.8,1.5,1.8S364.8,355.8,364.8,354.7z"/>
	<path class="st0" d="M370.4,357.9c-0.7-0.8-1.1-1.9-1.1-3.4v-9.6c0-1.5,0.4-2.6,1.1-3.4s1.8-1.2,3.2-1.2c1.4,0,2.5,0.4,3.2,1.2
		c0.7,0.8,1.1,1.9,1.1,3.4v9.6c0,1.5-0.4,2.6-1.1,3.4s-1.8,1.2-3.2,1.2C372.3,359,371.2,358.6,370.4,357.9z M375.2,354.7v-9.9
		c0-1.2-0.5-1.8-1.5-1.8s-1.5,0.6-1.5,1.8v9.9c0,1.2,0.5,1.8,1.5,1.8S375.2,355.8,375.2,354.7z"/>
</g>
<g>
	<path class="st0" d="M342.3,400.1h-3v-2c0.8,0,1.5-0.1,2-0.2s0.9-0.4,1.2-0.7c0.3-0.3,0.6-0.8,0.8-1.4h1.9V414h-2.9V400.1z"/>
	<path class="st0" d="M349.8,413.1c-0.7-0.8-1.1-1.9-1.1-3.4v-1.4h2.7v1.6c0,1.2,0.5,1.8,1.5,1.8s1.5-0.6,1.5-1.8v-4.1
		c0-1.2-0.5-1.8-1.5-1.8s-1.5,0.6-1.5,1.8v0.2h-2.7l0.5-10.2h7.5v2.6h-5l-0.2,4.3h0.1c0.5-0.9,1.4-1.3,2.5-1.3c1,0,1.8,0.4,2.4,1.1
		s0.8,1.7,0.8,3.1v4.1c0,1.5-0.4,2.6-1.1,3.4s-1.8,1.2-3.2,1.2S350.5,413.9,349.8,413.1z"/>
	<path class="st0" d="M360,413.1c-0.7-0.8-1.1-1.9-1.1-3.4v-9.6c0-1.5,0.4-2.6,1.1-3.4s1.8-1.2,3.2-1.2c1.4,0,2.5,0.4,3.2,1.2
		c0.7,0.8,1.1,1.9,1.1,3.4v9.6c0,1.5-0.4,2.6-1.1,3.4s-1.8,1.2-3.2,1.2C361.9,414.3,360.8,413.9,360,413.1z M364.8,409.9V400
		c0-1.2-0.5-1.8-1.5-1.8s-1.5,0.6-1.5,1.8v9.9c0,1.2,0.5,1.8,1.5,1.8S364.8,411.1,364.8,409.9z"/>
	<path class="st0" d="M370.4,413.1c-0.7-0.8-1.1-1.9-1.1-3.4v-9.6c0-1.5,0.4-2.6,1.1-3.4s1.8-1.2,3.2-1.2c1.4,0,2.5,0.4,3.2,1.2
		c0.7,0.8,1.1,1.9,1.1,3.4v9.6c0,1.5-0.4,2.6-1.1,3.4s-1.8,1.2-3.2,1.2C372.3,414.3,371.2,413.9,370.4,413.1z M375.2,409.9V400
		c0-1.2-0.5-1.8-1.5-1.8s-1.5,0.6-1.5,1.8v9.9c0,1.2,0.5,1.8,1.5,1.8S375.2,411.1,375.2,409.9z"/>
</g>
<g>
	<path class="st0" d="M338.3,470.7c0-1.3,0.2-2.4,0.6-3.3s1.2-2,2.2-3.1c1.1-1.1,1.8-2.1,2.2-2.9c0.4-0.8,0.6-1.6,0.6-2.5
		c0-0.8-0.1-1.3-0.4-1.6c-0.3-0.3-0.6-0.5-1.1-0.5c-1,0-1.5,0.6-1.5,1.8v2h-2.7v-1.8c0-1.5,0.4-2.6,1.1-3.4s1.8-1.2,3.2-1.2
		c1.4,0,2.4,0.4,3.2,1.2c0.7,0.8,1.1,1.9,1.1,3.4c0,1.1-0.3,2.2-0.8,3.3c-0.5,1.1-1.4,2.3-2.7,3.6c-0.8,0.9-1.4,1.6-1.7,2.2
		s-0.4,1.2-0.4,1.8v0.4h5.4v2.6h-8.3L338.3,470.7L338.3,470.7z"/>
	<path class="st0" d="M349.8,471.7c-0.7-0.8-1.1-1.9-1.1-3.4v-1.4h2.7v1.6c0,1.2,0.5,1.8,1.5,1.8s1.5-0.6,1.5-1.8v-4.1
		c0-1.2-0.5-1.8-1.5-1.8s-1.5,0.6-1.5,1.8v0.2h-2.7l0.5-10.2h7.5v2.6h-5l-0.2,4.3h0.1c0.5-0.9,1.4-1.3,2.5-1.3c1,0,1.8,0.4,2.4,1.1
		s0.8,1.7,0.8,3.1v4.1c0,1.5-0.4,2.6-1.1,3.4s-1.8,1.2-3.2,1.2S350.5,472.5,349.8,471.7z"/>
	<path class="st0" d="M360,471.7c-0.7-0.8-1.1-1.9-1.1-3.4v-9.6c0-1.5,0.4-2.6,1.1-3.4s1.8-1.2,3.2-1.2c1.4,0,2.5,0.4,3.2,1.2
		c0.7,0.8,1.1,1.9,1.1,3.4v9.6c0,1.5-0.4,2.6-1.1,3.4s-1.8,1.2-3.2,1.2C361.9,472.9,360.8,472.5,360,471.7z M364.8,468.5v-9.9
		c0-1.2-0.5-1.8-1.5-1.8s-1.5,0.6-1.5,1.8v9.9c0,1.2,0.5,1.8,1.5,1.8S364.8,469.7,364.8,468.5z"/>
	<path class="st0" d="M370.4,471.7c-0.7-0.8-1.1-1.9-1.1-3.4v-9.6c0-1.5,0.4-2.6,1.1-3.4s1.8-1.2,3.2-1.2c1.4,0,2.5,0.4,3.2,1.2
		c0.7,0.8,1.1,1.9,1.1,3.4v9.6c0,1.5-0.4,2.6-1.1,3.4s-1.8,1.2-3.2,1.2C372.3,472.9,371.2,472.5,370.4,471.7z M375.2,468.5v-9.9
		c0-1.2-0.5-1.8-1.5-1.8s-1.5,0.6-1.5,1.8v9.9c0,1.2,0.5,1.8,1.5,1.8S375.2,469.7,375.2,468.5z"/>
</g>
<g>
	<path class="st0" d="M280.2,522.9h-3v-2c0.8,0,1.5-0.1,2-0.2s0.9-0.4,1.2-0.7c0.3-0.3,0.6-0.8,0.8-1.4h1.9v18.2h-2.9V522.9z"/>
	<path class="st0" d="M287.6,535.9c-0.7-0.8-1.1-1.9-1.1-3.4v-1.4h2.7v1.6c0,1.2,0.5,1.8,1.5,1.8s1.5-0.6,1.5-1.8v-4.1
		c0-1.2-0.5-1.8-1.5-1.8s-1.5,0.6-1.5,1.8v0.2h-2.7l0.5-10.2h7.5v2.6h-5l-0.2,4.3h0.1c0.5-0.9,1.4-1.3,2.5-1.3c1,0,1.8,0.4,2.4,1.1
		s0.8,1.7,0.8,3.1v4.1c0,1.5-0.4,2.6-1.1,3.4c-0.7,0.8-1.8,1.2-3.2,1.2S288.3,536.7,287.6,535.9z"/>
	<path class="st0" d="M297.9,535.9c-0.7-0.8-1.1-1.9-1.1-3.4v-9.6c0-1.5,0.4-2.6,1.1-3.4c0.7-0.8,1.8-1.2,3.2-1.2
		c1.4,0,2.5,0.4,3.2,1.2s1.1,1.9,1.1,3.4v9.6c0,1.5-0.4,2.6-1.1,3.4c-0.7,0.8-1.8,1.2-3.2,1.2C299.7,537.1,298.6,536.7,297.9,535.9z
		 M302.6,532.7v-9.9c0-1.2-0.5-1.8-1.5-1.8s-1.5,0.6-1.5,1.8v9.9c0,1.2,0.5,1.8,1.5,1.8S302.6,533.9,302.6,532.7z"/>
	<path class="st0" d="M308.3,535.9c-0.7-0.8-1.1-1.9-1.1-3.4v-9.6c0-1.5,0.4-2.6,1.1-3.4c0.7-0.8,1.8-1.2,3.2-1.2
		c1.4,0,2.5,0.4,3.2,1.2s1.1,1.9,1.1,3.4v9.6c0,1.5-0.4,2.6-1.1,3.4c-0.7,0.8-1.8,1.2-3.2,1.2C310.1,537.1,309,536.7,308.3,535.9z
		 M313,532.7v-9.9c0-1.2-0.5-1.8-1.5-1.8s-1.5,0.6-1.5,1.8v9.9c0,1.2,0.5,1.8,1.5,1.8S313,533.9,313,532.7z"/>
</g>
<g>
	<path class="st0" d="M240.8,182.4h-5.5v-2.6l5.2-12.3h3.1v12.3h1.4v2.6h-1.4v3.3h-2.9L240.8,182.4L240.8,182.4z M240.8,179.8v-7.1
		h-0.1l-2.8,7.1H240.8z"/>
	<path class="st0" d="M251.5,184.7c-0.7-0.8-1.1-1.9-1.1-3.4v-9.6c0-1.5,0.4-2.6,1.1-3.4c0.7-0.8,1.8-1.2,3.2-1.2
		c1.4,0,2.5,0.4,3.2,1.2c0.7,0.8,1.1,1.9,1.1,3.4v9.6c0,1.5-0.4,2.6-1.1,3.4c-0.7,0.8-1.8,1.2-3.2,1.2
		C253.3,185.9,252.3,185.5,251.5,184.7z M256.2,181.5v-9.9c0-1.2-0.5-1.8-1.5-1.8s-1.5,0.6-1.5,1.8v9.9c0,1.2,0.5,1.8,1.5,1.8
		S256.2,182.7,256.2,181.5z"/>
	<path class="st0" d="M261,167.5h7.6v2.6h-4.7v5.1h3.7v2.6h-3.7v7.9H261V167.5z"/>
	<path class="st0" d="M276.3,167.5h3.9l3,18.2h-2.9l-0.5-3.6v0.1h-3.3l-0.5,3.6h-2.7L276.3,167.5z M279.4,179.6l-1.3-9H278l-1.2,9
		H279.4z"/>
	<path class="st0" d="M288.7,167.5h2.9v7.7l3.6-7.7h2.9l-3.4,6.7l3.5,11.5h-3l-2.4-8.1l-1.1,2.3v5.8h-2.9v-18.2H288.7z"/>
	<path class="st0" d="M299.5,167.5h2.9v18.2h-2.9V167.5z"/>
	<path class="st0" d="M304.5,167.5h3.6l2.8,10.9h0.1v-10.9h2.5v18.2h-2.9l-3.4-13.3H307v13.3h-2.5V167.5z"/>
	<path class="st0" d="M315.6,167.5h4.4c1.4,0,2.5,0.4,3.2,1.1c0.7,0.8,1.1,1.9,1.1,3.4v9.2c0,1.5-0.4,2.6-1.1,3.4
		c-0.7,0.8-1.8,1.1-3.2,1.1h-4.4V167.5z M319.9,183.1c0.5,0,0.8-0.1,1.1-0.4c0.3-0.3,0.4-0.7,0.4-1.4v-9.5c0-0.6-0.1-1.1-0.4-1.4
		c-0.3-0.3-0.6-0.4-1.1-0.4h-1.5v13L319.9,183.1L319.9,183.1z"/>
</g>
<g>
	<path class="st0" d="M104.6,35.6c-0.7-0.8-1.1-1.9-1.1-3.4v-1h2.7v1.2c0,1.2,0.5,1.8,1.5,1.8c0.5,0,0.9-0.1,1.1-0.4
		c0.3-0.3,0.4-0.7,0.4-1.4c0-0.8-0.2-1.4-0.5-2s-1-1.3-1.9-2.1c-1.2-1-2-2-2.5-2.8s-0.7-1.8-0.7-2.8c0-1.4,0.4-2.6,1.1-3.3
		c0.7-0.8,1.8-1.2,3.2-1.2c1.4,0,2.4,0.4,3.1,1.2s1.1,1.9,1.1,3.4v0.8h-2.7v-0.9c0-0.6-0.1-1.1-0.4-1.4c-0.2-0.3-0.6-0.4-1.1-0.4
		c-1,0-1.4,0.6-1.4,1.7c0,0.7,0.2,1.3,0.5,1.8c0.4,0.6,1,1.3,1.9,2.1c1.2,1,2,2,2.5,2.8s0.7,1.8,0.7,3c0,1.5-0.4,2.6-1.1,3.4
		c-0.7,0.8-1.8,1.2-3.2,1.2C106.4,36.8,105.3,36.4,104.6,35.6z"/>
	<path class="st0" d="M114.6,35.6c-0.7-0.8-1.1-1.9-1.1-3.3v-9.8c0-1.4,0.4-2.5,1.1-3.3s1.8-1.2,3.1-1.2s2.4,0.4,3.1,1.2
		c0.7,0.8,1.1,1.9,1.1,3.3v1.9h-2.7v-2.1c0-1.1-0.5-1.7-1.4-1.7s-1.4,0.6-1.4,1.7v10.2c0,1.1,0.5,1.7,1.4,1.7s1.4-0.6,1.4-1.7v-2.8
		h2.7v2.6c0,1.4-0.4,2.5-1.1,3.3s-1.8,1.2-3.1,1.2S115.3,36.4,114.6,35.6z"/>
	<path class="st0" d="M124.6,35.6c-0.7-0.8-1.1-1.9-1.1-3.4v-9.6c0-1.5,0.4-2.6,1.1-3.4s1.8-1.2,3.2-1.2c1.4,0,2.5,0.4,3.2,1.2
		c0.7,0.8,1.1,1.9,1.1,3.4v9.6c0,1.5-0.4,2.6-1.1,3.4c-0.7,0.8-1.8,1.2-3.2,1.2C126.4,36.8,125.3,36.4,124.6,35.6z M129.3,32.4v-9.9
		c0-1.2-0.5-1.8-1.5-1.8s-1.5,0.6-1.5,1.8v9.9c0,1.2,0.5,1.8,1.5,1.8S129.3,33.6,129.3,32.4z"/>
	<path class="st0" d="M134.1,18.3h4.2c1.5,0,2.5,0.3,3.2,1s1,1.7,1,3.2v1.1c0,1.9-0.6,3.1-1.9,3.6v0.1c0.7,0.2,1.2,0.6,1.5,1.3
		c0.3,0.6,0.4,1.5,0.4,2.6v3.2c0,0.5,0,0.9,0.1,1.3c0,0.3,0.1,0.6,0.3,0.9H140c-0.1-0.3-0.2-0.6-0.2-0.8c0-0.3-0.1-0.7-0.1-1.4V31
		c0-0.8-0.1-1.4-0.4-1.7c-0.3-0.3-0.7-0.5-1.4-0.5h-1v7.8H134L134.1,18.3L134.1,18.3z M138,26.1c0.6,0,1-0.1,1.3-0.4
		s0.4-0.8,0.4-1.5v-1.4c0-0.7-0.1-1.1-0.4-1.4c-0.2-0.3-0.6-0.4-1.1-0.4h-1.3v5.2h1.1V26.1z"/>
	<path class="st0" d="M144.6,18.3h2.9v18.2h-2.9V18.3z"/>
	<path class="st0" d="M149.5,18.3h3.6l2.8,10.9h0.1V18.3h2.5v18.2h-2.9l-3.4-13.3h-0.1v13.3h-2.5V18.3H149.5z"/>
	<path class="st0" d="M161.5,35.6c-0.7-0.8-1.1-1.9-1.1-3.4v-9.6c0-1.5,0.4-2.6,1.1-3.4c0.7-0.8,1.8-1.2,3.2-1.2s2.4,0.4,3.2,1.2
		c0.7,0.8,1.1,1.9,1.1,3.4v1.6h-2.7v-1.7c0-1.2-0.5-1.8-1.5-1.8s-1.5,0.6-1.5,1.8v10c0,1.2,0.5,1.8,1.5,1.8s1.5-0.6,1.5-1.8v-3.6
		h-1.4v-2.6h4.1v6c0,1.5-0.4,2.6-1.1,3.4c-0.7,0.8-1.8,1.2-3.2,1.2S162.3,36.4,161.5,35.6z"/>
	<path class="st0" d="M175.9,35.6c-0.7-0.8-1.1-1.9-1.1-3.3v-9.8c0-1.4,0.4-2.5,1.1-3.3c0.7-0.8,1.8-1.2,3.1-1.2s2.4,0.4,3.1,1.2
		c0.7,0.8,1.1,1.9,1.1,3.3v1.9h-2.7v-2.1c0-1.1-0.5-1.7-1.4-1.7s-1.4,0.6-1.4,1.7v10.2c0,1.1,0.5,1.7,1.4,1.7s1.4-0.6,1.4-1.7v-2.8
		h2.7v2.6c0,1.4-0.4,2.5-1.1,3.3c-0.7,0.8-1.8,1.2-3.1,1.2S176.6,36.4,175.9,35.6z"/>
	<path class="st0" d="M185.8,35.6c-0.7-0.8-1.1-1.9-1.1-3.4v-9.6c0-1.5,0.4-2.6,1.1-3.4c0.7-0.8,1.8-1.2,3.2-1.2s2.5,0.4,3.2,1.2
		c0.7,0.8,1.1,1.9,1.1,3.4v9.6c0,1.5-0.4,2.6-1.1,3.4c-0.7,0.8-1.8,1.2-3.2,1.2C187.7,36.8,186.6,36.4,185.8,35.6z M190.5,32.4v-9.9
		c0-1.2-0.5-1.8-1.5-1.8s-1.5,0.6-1.5,1.8v9.9c0,1.2,0.5,1.8,1.5,1.8S190.5,33.6,190.5,32.4z"/>
	<path class="st0" d="M195.3,18.3h4.1l1.8,13h0.1l1.8-13h4.1v18.2h-2.7V22.7h-0.1l-2.1,13.8H200l-2.1-13.8h-0.1v13.8h-2.5
		L195.3,18.3L195.3,18.3z"/>
	<path class="st0" d="M209.3,18.3h4.3c1.5,0,2.5,0.3,3.2,1s1,1.7,1,3.2v0.7c0,0.9-0.2,1.7-0.5,2.3c-0.3,0.6-0.8,1-1.4,1.3v0.1
		c1.4,0.5,2.1,1.8,2.1,3.8v1.6c0,1.4-0.4,2.5-1.1,3.2c-0.7,0.7-1.8,1.1-3.2,1.1h-4.5L209.3,18.3L209.3,18.3z M213.3,25.7
		c0.6,0,1-0.1,1.3-0.4s0.4-0.8,0.4-1.5v-1c0-0.7-0.1-1.1-0.4-1.4c-0.2-0.3-0.6-0.4-1.1-0.4h-1.4v4.8h1.2V25.7z M213.8,33.9
		c0.5,0,0.9-0.1,1.1-0.4c0.2-0.3,0.4-0.7,0.4-1.4v-1.6c0-0.8-0.1-1.4-0.4-1.7c-0.3-0.3-0.8-0.5-1.4-0.5h-1.3v5.6
		C212.2,33.9,213.8,33.9,213.8,33.9z"/>
	<path class="st0" d="M219.8,18.3h2.9v18.2h-2.9V18.3z"/>
	<path class="st0" d="M224.8,18.3h3.6l2.8,10.9h0.1V18.3h2.5v18.2h-2.9l-3.4-13.3h-0.1v13.3h-2.5V18.3H224.8z"/>
	<path class="st0" d="M238.1,18.3h3.9l3,18.2h-2.9l-0.5-3.6V33h-3.3l-0.5,3.6h-2.7L238.1,18.3z M241.3,30.5l-1.3-9h-0.1l-1.2,9
		H241.3z"/>
	<path class="st0" d="M248.6,20.9h-3v-2.6h8.8v2.6h-3v15.6h-2.9L248.6,20.9L248.6,20.9z"/>
	<path class="st0" d="M255.8,18.3h2.9v18.2h-2.9L255.8,18.3L255.8,18.3z"/>
	<path class="st0" d="M261.7,35.6c-0.7-0.8-1.1-1.9-1.1-3.4v-9.6c0-1.5,0.4-2.6,1.1-3.4s1.8-1.2,3.2-1.2c1.4,0,2.5,0.4,3.2,1.2
		c0.7,0.8,1.1,1.9,1.1,3.4v9.6c0,1.5-0.4,2.6-1.1,3.4c-0.7,0.8-1.8,1.2-3.2,1.2S262.5,36.4,261.7,35.6z M266.4,32.4v-9.9
		c0-1.2-0.5-1.8-1.5-1.8s-1.5,0.6-1.5,1.8v9.9c0,1.2,0.5,1.8,1.5,1.8S266.4,33.6,266.4,32.4z"/>
	<path class="st0" d="M271.2,18.3h3.6l2.8,10.9h0.1V18.3h2.5v18.2h-2.9l-3.4-13.3h-0.1v13.3h-2.5V18.3H271.2z"/>
	<path class="st0" d="M282.9,35.6c-0.7-0.8-1.1-1.9-1.1-3.4v-1h2.7v1.2c0,1.2,0.5,1.8,1.5,1.8c0.5,0,0.9-0.1,1.1-0.4
		c0.3-0.3,0.4-0.7,0.4-1.4c0-0.8-0.2-1.4-0.5-2s-1-1.3-1.9-2.1c-1.2-1-2-2-2.5-2.8s-0.7-1.8-0.7-2.8c0-1.4,0.4-2.6,1.1-3.3
		c0.7-0.8,1.8-1.2,3.2-1.2c1.4,0,2.4,0.4,3.1,1.2s1.1,1.9,1.1,3.4v0.8h-2.7v-0.9c0-0.6-0.1-1.1-0.4-1.4c-0.2-0.3-0.6-0.4-1.1-0.4
		c-1,0-1.4,0.6-1.4,1.7c0,0.7,0.2,1.3,0.5,1.8c0.4,0.6,1,1.3,1.9,2.1c1.2,1,2,2,2.5,2.8s0.7,1.8,0.7,3c0,1.5-0.4,2.6-1.1,3.4
		c-0.7,0.8-1.8,1.2-3.2,1.2C284.6,36.8,283.6,36.4,282.9,35.6z"/>
</g>
<g>
	<path class="st0" d="M237.1,241.2c-0.7-0.8-1.1-1.9-1.1-3.4v-1.4h2.7v1.6c0,1.2,0.5,1.8,1.5,1.8s1.5-0.6,1.5-1.8v-4.1
		c0-1.2-0.5-1.8-1.5-1.8s-1.5,0.6-1.5,1.8v0.2H236l0.5-10.2h7.5v2.6h-5l-0.2,4.3h0.1c0.5-0.9,1.4-1.3,2.5-1.3c1,0,1.8,0.4,2.4,1.1
		c0.5,0.7,0.8,1.7,0.8,3.1v4.1c0,1.5-0.4,2.6-1.1,3.4c-0.7,0.8-1.8,1.2-3.2,1.2S237.8,242,237.1,241.2z"/>
	<path class="st0" d="M251.5,241.2c-0.7-0.8-1.1-1.9-1.1-3.4v-9.6c0-1.5,0.4-2.6,1.1-3.4c0.7-0.8,1.8-1.2,3.2-1.2
		c1.4,0,2.5,0.4,3.2,1.2c0.7,0.8,1.1,1.9,1.1,3.4v9.6c0,1.5-0.4,2.6-1.1,3.4c-0.7,0.8-1.8,1.2-3.2,1.2
		C253.4,242.4,252.3,242,251.5,241.2z M256.2,238v-10c0-1.2-0.5-1.8-1.5-1.8s-1.5,0.6-1.5,1.8v9.9c0,1.2,0.5,1.8,1.5,1.8
		S256.2,239.2,256.2,238z"/>
	<path class="st0" d="M261,223.9h7.6v2.6h-4.7v5.1h3.7v2.6h-3.7v7.9H261V223.9z"/>
	<path class="st0" d="M276.3,223.9h3.9l3,18.2h-2.9l-0.5-3.6v0.1h-3.3l-0.5,3.6h-2.7L276.3,223.9z M279.5,236.1l-1.3-9h-0.1l-1.2,9
		H279.5z"/>
	<path class="st0" d="M288.7,223.9h2.9v7.7l3.6-7.7h2.9l-3.4,6.7l3.5,11.5h-3l-2.4-8.1l-1.1,2.3v5.8h-2.9v-18.2H288.7z"/>
	<path class="st0" d="M299.5,223.9h2.9v18.2h-2.9V223.9z"/>
	<path class="st0" d="M304.5,223.9h3.6l2.8,10.9h0.1v-10.9h2.5v18.2h-2.9l-3.4-13.3H307v13.3h-2.5V223.9z"/>
	<path class="st0" d="M315.6,223.9h4.4c1.4,0,2.5,0.4,3.2,1.1c0.7,0.8,1.1,1.9,1.1,3.4v9.2c0,1.5-0.4,2.6-1.1,3.4
		c-0.7,0.8-1.8,1.1-3.2,1.1h-4.4V223.9z M319.9,239.5c0.5,0,0.8-0.1,1.1-0.4c0.3-0.3,0.4-0.7,0.4-1.4v-9.5c0-0.6-0.1-1.1-0.4-1.4
		c-0.3-0.3-0.6-0.4-1.1-0.4h-1.5v13L319.9,239.5L319.9,239.5z"/>
</g>
<g>
	<path class="st0" d="M237.1,298.8c-0.7-0.8-1.1-1.9-1.1-3.4V286c0-3.2,1.5-4.7,4.4-4.7c1.4,0,2.4,0.4,3.2,1.2
		c0.7,0.8,1.1,1.9,1.1,3.4v0.3H242v-0.5c0-1.2-0.5-1.8-1.5-1.8c-0.5,0-0.9,0.2-1.2,0.5s-0.4,0.9-0.4,1.7v3.5h0.1
		c0.5-1.1,1.4-1.6,2.6-1.6c1,0,1.8,0.4,2.4,1.1c0.5,0.7,0.8,1.7,0.8,3.1v3.2c0,1.5-0.4,2.6-1.1,3.4c-0.7,0.8-1.8,1.2-3.2,1.2
		C238.9,300,237.8,299.6,237.1,298.8z M241.8,295.6v-3.2c0-1.2-0.5-1.8-1.5-1.8s-1.5,0.6-1.5,1.8v3.2c0,1.2,0.5,1.8,1.5,1.8
		S241.8,296.8,241.8,295.6z"/>
	<path class="st0" d="M251.5,298.8c-0.7-0.8-1.1-1.9-1.1-3.4v-9.6c0-1.5,0.4-2.6,1.1-3.4c0.7-0.8,1.8-1.2,3.2-1.2
		c1.4,0,2.5,0.4,3.2,1.2c0.7,0.8,1.1,1.9,1.1,3.4v9.6c0,1.5-0.4,2.6-1.1,3.4s-1.8,1.2-3.2,1.2C253.4,300,252.3,299.6,251.5,298.8z
		 M256.2,295.6v-9.9c0-1.2-0.5-1.8-1.5-1.8s-1.5,0.6-1.5,1.8v9.9c0,1.2,0.5,1.8,1.5,1.8S256.2,296.8,256.2,295.6z"/>
	<path class="st0" d="M261,281.5h7.6v2.6h-4.7v5.1h3.7v2.6h-3.7v7.9H261V281.5z"/>
	<path class="st0" d="M276.3,281.5h3.9l3,18.2h-2.9l-0.5-3.6v0.1h-3.3l-0.5,3.6h-2.7L276.3,281.5z M279.5,293.7l-1.3-9h-0.1l-1.2,9
		H279.5z"/>
	<path class="st0" d="M288.7,281.5h2.9v7.7l3.6-7.7h2.9l-3.4,6.7l3.5,11.5h-3l-2.4-8.1l-1.1,2.3v5.8h-2.9v-18.2H288.7z"/>
	<path class="st0" d="M299.5,281.5h2.9v18.2h-2.9V281.5z"/>
	<path class="st0" d="M304.5,281.5h3.6l2.8,10.9h0.1v-10.9h2.5v18.2h-2.9l-3.4-13.3H307v13.3h-2.5V281.5z"/>
	<path class="st0" d="M315.6,281.5h4.4c1.4,0,2.5,0.4,3.2,1.1c0.7,0.8,1.1,1.9,1.1,3.4v9.2c0,1.5-0.4,2.6-1.1,3.4s-1.8,1.1-3.2,1.1
		h-4.4V281.5z M319.9,297.1c0.5,0,0.8-0.1,1.1-0.4s0.4-0.7,0.4-1.4v-9.5c0-0.6-0.1-1.1-0.4-1.4s-0.6-0.4-1.1-0.4h-1.5v13
		L319.9,297.1L319.9,297.1z"/>
</g>
<g>
	<path class="st0" d="M206.1,357.9c-0.7-0.8-1.1-1.9-1.1-3.4v-1h2.7v1.2c0,1.2,0.5,1.8,1.5,1.8c0.5,0,0.9-0.1,1.1-0.4
		c0.3-0.3,0.4-0.8,0.4-1.4c0-0.8-0.2-1.4-0.5-2s-1-1.3-1.9-2.1c-1.2-1-2-2-2.5-2.8s-0.7-1.8-0.7-2.8c0-1.4,0.4-2.6,1.1-3.3
		c0.7-0.8,1.8-1.2,3.2-1.2s2.4,0.4,3.1,1.2c0.7,0.8,1.1,1.9,1.1,3.4v0.8h-2.7V345c0-0.6-0.1-1.1-0.4-1.4c-0.2-0.3-0.6-0.4-1.1-0.4
		c-1,0-1.4,0.6-1.4,1.7c0,0.7,0.2,1.3,0.5,1.8c0.4,0.6,1,1.3,1.9,2.1c1.2,1,2,2,2.5,2.8s0.7,1.8,0.7,3c0,1.5-0.4,2.6-1.1,3.4
		c-0.7,0.8-1.8,1.2-3.2,1.2C207.9,359.1,206.8,358.7,206.1,357.9z"/>
	<path class="st0" d="M217.4,343.2h-3v-2.6h8.8v2.6h-3v15.6h-2.9L217.4,343.2L217.4,343.2z"/>
	<path class="st0" d="M224.7,340.6h4.2c1.5,0,2.5,0.3,3.2,1s1,1.7,1,3.2v1.1c0,1.9-0.6,3.1-1.9,3.6v0.1c0.7,0.2,1.2,0.6,1.5,1.3
		c0.3,0.6,0.4,1.5,0.4,2.6v3.2c0,0.5,0,0.9,0.1,1.3c0,0.3,0.1,0.6,0.3,0.9h-2.9c-0.1-0.3-0.2-0.6-0.2-0.8s-0.1-0.7-0.1-1.4v-3.3
		c0-0.8-0.1-1.4-0.4-1.7s-0.7-0.5-1.4-0.5h-1v7.8h-2.9L224.7,340.6L224.7,340.6z M228.6,348.4c0.6,0,1-0.1,1.3-0.4s0.4-0.8,0.4-1.5
		v-1.4c0-0.7-0.1-1.1-0.4-1.4c-0.2-0.3-0.6-0.4-1.1-0.4h-1.3v5.2h1.1V348.4z"/>
	<path class="st0" d="M237.4,340.6h3.9l3,18.2h-2.9l-0.5-3.6v0.1h-3.3l-0.5,3.6h-2.7L237.4,340.6z M240.5,352.8l-1.3-9h-0.1l-1.2,9
		H240.5z"/>
	<path class="st0" d="M245.6,340.6h2.9v18.2h-2.9V340.6z"/>
	<path class="st0" d="M251.5,357.9c-0.7-0.8-1.1-1.9-1.1-3.4v-9.6c0-1.5,0.4-2.6,1.1-3.4c0.7-0.8,1.8-1.2,3.2-1.2
		c1.4,0,2.4,0.4,3.2,1.2c0.7,0.8,1.1,1.9,1.1,3.4v1.6h-2.7v-1.7c0-1.2-0.5-1.8-1.5-1.8s-1.5,0.6-1.5,1.8v10c0,1.2,0.5,1.8,1.5,1.8
		s1.5-0.6,1.5-1.8v-3.6h-1.4v-2.6h4.1v6c0,1.5-0.4,2.6-1.1,3.4s-1.8,1.2-3.2,1.2S252.2,358.7,251.5,357.9z"/>
	<path class="st0" d="M260.7,340.6h2.9v7.4h3.1v-7.4h2.9v18.2h-2.9v-8.2h-3.1v8.2h-2.9V340.6z"/>
	<path class="st0" d="M273.9,343.2h-3v-2.6h8.8v2.6h-3v15.6h-2.9v-15.6H273.9z"/>
	<path class="st0" d="M286.5,359.2c-0.6-0.6-0.9-1.6-0.9-3.1v-12.8c0-1.4,0.3-2.5,0.9-3.1s1.6-0.9,3.1-0.9h0.9v2.3h-0.7
		c-0.5,0-0.8,0.1-1,0.4c-0.2,0.2-0.3,0.7-0.3,1.3v12.8c0,0.6,0.1,1.1,0.3,1.3c0.2,0.2,0.5,0.4,1,0.4h0.7v2.3h-0.9
		C288.2,360.1,287.1,359.8,286.5,359.2z"/>
	<path class="st0" d="M296.5,344.9h-3v-2c0.8,0,1.5-0.1,2-0.2s0.9-0.4,1.2-0.7c0.3-0.3,0.6-0.8,0.8-1.4h1.9v18.2h-2.9V344.9z"/>
	<path class="st0" d="M302.4,348.4h5.7v2.6h-5.7V348.4z"/>
	<path class="st0" d="M310.9,357.9c-0.7-0.8-1.1-1.9-1.1-3.4v-9.4c0-3.2,1.5-4.7,4.4-4.7c1.4,0,2.4,0.4,3.2,1.2
		c0.7,0.8,1.1,1.9,1.1,3.4v0.3h-2.7v-0.5c0-1.2-0.5-1.8-1.5-1.8c-0.5,0-0.9,0.2-1.2,0.5c-0.3,0.3-0.4,0.9-0.4,1.7v3.5h0.1
		c0.5-1.1,1.4-1.6,2.6-1.6c1,0,1.8,0.4,2.4,1.1c0.5,0.7,0.8,1.7,0.8,3.1v3.3c0,1.5-0.4,2.6-1.1,3.4s-1.8,1.2-3.2,1.2
		C312.7,359.1,311.6,358.7,310.9,357.9z M315.6,354.7v-3.2c0-1.2-0.5-1.8-1.5-1.8s-1.5,0.6-1.5,1.8v3.2c0,1.2,0.5,1.8,1.5,1.8
		S315.6,355.9,315.6,354.7z"/>
	<path class="st0" d="M320.1,357.8h0.7c0.5,0,0.8-0.1,1-0.4c0.2-0.2,0.3-0.7,0.3-1.3v-12.8c0-0.6-0.1-1.1-0.3-1.3
		c-0.2-0.2-0.5-0.4-1-0.4h-0.7v-2.3h0.9c1.4,0,2.5,0.3,3.1,0.9s0.9,1.6,0.9,3.1v12.8c0,1.4-0.3,2.5-0.9,3.1s-1.6,0.9-3.1,0.9h-0.9
		V357.8z"/>
</g>
<g>
	<path class="st0" d="M228.7,398.4h-3v-2.6h8.8v2.6h-3V414h-2.9L228.7,398.4L228.7,398.4z"/>
	<path class="st0" d="M235.9,395.8h2.9v7.4h3.1v-7.4h2.9V414h-2.9v-8.2h-3.1v8.2h-2.9V395.8z"/>
	<path class="st0" d="M246.8,395.8h4.2c1.5,0,2.5,0.3,3.2,1s1,1.7,1,3.2v1.1c0,1.9-0.6,3.1-1.9,3.6v0.1c0.7,0.2,1.2,0.6,1.5,1.3
		c0.3,0.6,0.4,1.5,0.4,2.6v3.2c0,0.5,0,0.9,0.1,1.3c0,0.3,0.1,0.6,0.3,0.9h-2.9c-0.1-0.3-0.2-0.6-0.2-0.8s-0.1-0.7-0.1-1.4v-3.3
		c0-0.8-0.1-1.4-0.4-1.7s-0.7-0.5-1.4-0.5h-1v7.8h-2.9L246.8,395.8L246.8,395.8z M250.7,403.6c0.6,0,1-0.1,1.3-0.4s0.4-0.8,0.4-1.5
		v-1.4c0-0.7-0.1-1.1-0.4-1.4c-0.2-0.3-0.6-0.4-1.1-0.4h-1.3v5.2h1.1V403.6z"/>
	<path class="st0" d="M257.3,395.8h7.8v2.6h-4.9v4.8h3.9v2.6h-3.9v5.6h4.9v2.6h-7.8V395.8z"/>
	<path class="st0" d="M266.7,395.8h7.8v2.6h-4.9v4.8h3.9v2.6h-3.9v5.6h4.9v2.6h-7.8V395.8z"/>
	<path class="st0" d="M280.3,395.8h4.2c1.4,0,2.5,0.4,3.2,1.1s1.1,1.9,1.1,3.4v1.8c0,1.5-0.4,2.6-1.1,3.4s-1.8,1.1-3.2,1.1h-1.4v7.4
		h-2.9L280.3,395.8L280.3,395.8z M284.5,404c0.5,0,0.8-0.1,1.1-0.4c0.2-0.3,0.4-0.7,0.4-1.3v-2.2c0-0.6-0.1-1.1-0.4-1.3
		s-0.6-0.4-1.1-0.4h-1.4v5.6L284.5,404L284.5,404z"/>
	<path class="st0" d="M292.2,395.8h3.9l3,18.2h-2.9l-0.5-3.6v0.1h-3.3l-0.5,3.6h-2.7L292.2,395.8z M295.4,408l-1.3-9H294l-1.2,9
		H295.4z"/>
	<path class="st0" d="M300.5,395.8h2.9V414h-2.9V395.8z"/>
	<path class="st0" d="M305.5,395.8h4.2c1.5,0,2.5,0.3,3.2,1s1,1.7,1,3.2v1.1c0,1.9-0.6,3.1-1.9,3.6v0.1c0.7,0.2,1.2,0.6,1.5,1.3
		c0.3,0.6,0.4,1.5,0.4,2.6v3.2c0,0.5,0,0.9,0.1,1.3c0,0.3,0.1,0.6,0.3,0.9h-2.9c-0.1-0.3-0.2-0.6-0.2-0.8s-0.1-0.7-0.1-1.4v-3.3
		c0-0.8-0.1-1.4-0.4-1.7s-0.7-0.5-1.4-0.5h-1v7.8h-2.9L305.5,395.8L305.5,395.8z M309.4,403.6c0.6,0,1-0.1,1.3-0.4s0.4-0.8,0.4-1.5
		v-1.4c0-0.7-0.1-1.1-0.4-1.4c-0.2-0.3-0.6-0.4-1.1-0.4h-1.3v5.2h1.1V403.6z"/>
	<path class="st0" d="M316.5,413.1c-0.7-0.8-1.1-1.9-1.1-3.4v-1h2.7v1.2c0,1.2,0.5,1.8,1.5,1.8c0.5,0,0.9-0.1,1.1-0.4
		c0.3-0.3,0.4-0.8,0.4-1.4c0-0.8-0.2-1.4-0.5-2s-1-1.3-1.9-2.1c-1.2-1-2-2-2.5-2.8s-0.7-1.8-0.7-2.8c0-1.4,0.4-2.6,1.1-3.3
		c0.7-0.8,1.8-1.2,3.2-1.2c1.4,0,2.4,0.4,3.1,1.2c0.7,0.8,1.1,1.9,1.1,3.4v0.8h-2.7V400c0-0.6-0.1-1.1-0.4-1.4
		c-0.2-0.3-0.6-0.4-1.1-0.4c-1,0-1.4,0.6-1.4,1.7c0,0.7,0.2,1.3,0.5,1.8c0.4,0.6,1,1.3,1.9,2.1c1.2,1,2,2,2.5,2.8s0.7,1.8,0.7,3
		c0,1.5-0.4,2.6-1.1,3.4s-1.8,1.2-3.2,1.2C318.3,414.3,317.2,413.9,316.5,413.1z"/>
</g>
<g>
	<path class="st0" d="M217.8,457.1h-3v-2.6h8.8v2.6h-3v15.6h-2.9L217.8,457.1L217.8,457.1z"/>
	<path class="st0" d="M224.3,454.5h2.8l1.3,14h0.1l1.4-14h3.1l1.4,14h0.1l1.3-14h2.5l-1.8,18.2h-3.6l-1.3-12.3h-0.1l-1.3,12.3h-3.8
		L224.3,454.5z"/>
	<path class="st0" d="M240.4,471.7c-0.7-0.8-1.1-1.9-1.1-3.4v-9.6c0-1.5,0.4-2.6,1.1-3.4c0.7-0.8,1.8-1.2,3.2-1.2s2.5,0.4,3.2,1.2
		c0.7,0.8,1.1,1.9,1.1,3.4v9.6c0,1.5-0.4,2.6-1.1,3.4c-0.7,0.8-1.8,1.2-3.2,1.2C242.2,472.9,241.1,472.5,240.4,471.7z M245.1,468.5
		v-9.9c0-1.2-0.5-1.8-1.5-1.8s-1.5,0.6-1.5,1.8v9.9c0,1.2,0.5,1.8,1.5,1.8S245.1,469.7,245.1,468.5z"/>
	<path class="st0" d="M256.3,457.1h-3v-2.6h8.8v2.6h-3v15.6h-2.9v-15.6H256.3z"/>
	<path class="st0" d="M263.5,454.5h4.2c1.5,0,2.5,0.3,3.2,1s1,1.7,1,3.2v1.1c0,1.9-0.6,3.1-1.9,3.6v0.1c0.7,0.2,1.2,0.6,1.5,1.3
		c0.3,0.6,0.4,1.5,0.4,2.6v3.2c0,0.5,0,0.9,0.1,1.3c0,0.3,0.1,0.6,0.3,0.9h-2.9c-0.1-0.3-0.2-0.6-0.2-0.8s-0.1-0.7-0.1-1.4v-3.3
		c0-0.8-0.1-1.4-0.4-1.7s-0.7-0.5-1.4-0.5h-1v7.8h-2.9L263.5,454.5L263.5,454.5z M267.4,462.3c0.6,0,1-0.1,1.3-0.4s0.4-0.8,0.4-1.5
		V459c0-0.7-0.1-1.1-0.4-1.4c-0.2-0.3-0.6-0.4-1.1-0.4h-1.3v5.2h1.1V462.3z"/>
	<path class="st0" d="M274,454.5h2.9v18.2H274V454.5z"/>
	<path class="st0" d="M279,454.5h4.2c1.4,0,2.5,0.4,3.2,1.1s1.1,1.9,1.1,3.4v1.8c0,1.5-0.4,2.6-1.1,3.4s-1.8,1.1-3.2,1.1h-1.4v7.4
		H279V454.5z M283.2,462.7c0.5,0,0.8-0.1,1.1-0.4c0.2-0.3,0.4-0.7,0.4-1.3v-2.2c0-0.6-0.1-1.1-0.4-1.3s-0.6-0.4-1.1-0.4h-1.4v5.6
		L283.2,462.7L283.2,462.7z"/>
	<path class="st0" d="M289,454.5h2.9v15.6h4.7v2.6H289V454.5z"/>
	<path class="st0" d="M297.9,454.5h7.8v2.6h-4.9v4.8h3.9v2.6h-3.9v5.6h4.9v2.6h-7.8V454.5z"/>
	<path class="st0" d="M309.6,457.1h-3v-2.6h8.8v2.6h-3v15.6h-2.9v-15.6H309.6z"/>
	<path class="st0" d="M317.4,471.8c-0.7-0.8-1.1-1.9-1.1-3.4v-1h2.7v1.2c0,1.2,0.5,1.8,1.5,1.8c0.5,0,0.9-0.1,1.1-0.4
		c0.3-0.3,0.4-0.8,0.4-1.4c0-0.8-0.2-1.4-0.5-2s-1-1.3-1.9-2.1c-1.2-1-2-2-2.5-2.8s-0.7-1.8-0.7-2.8c0-1.4,0.4-2.6,1.1-3.3
		c0.7-0.8,1.8-1.2,3.2-1.2c1.4,0,2.4,0.4,3.1,1.2c0.7,0.8,1.1,1.9,1.1,3.4v0.8h-2.7v-0.9c0-0.6-0.1-1.1-0.4-1.4
		c-0.2-0.3-0.6-0.4-1.1-0.4c-1,0-1.4,0.6-1.4,1.7c0,0.7,0.2,1.3,0.5,1.8c0.4,0.6,1,1.3,1.9,2.1c1.2,1,2,2,2.5,2.8s0.7,1.8,0.7,3
		c0,1.5-0.4,2.6-1.1,3.4s-1.8,1.2-3.2,1.2C319.2,472.9,318.1,472.5,317.4,471.8z"/>
</g>
<g>
	<path class="st0" d="M59.7,518.6h7.6v2.6h-4.7v5.1h3.7v2.6h-3.7v7.9h-2.9V518.6z"/>
	<path class="st0" d="M69.6,535.9c-0.7-0.8-1.1-1.9-1.1-3.4v-9.6c0-1.5,0.4-2.6,1.1-3.4c0.7-0.8,1.8-1.2,3.2-1.2
		c1.4,0,2.5,0.4,3.2,1.2s1.1,1.9,1.1,3.4v9.6c0,1.5-0.4,2.6-1.1,3.4c-0.7,0.8-1.8,1.2-3.2,1.2C71.4,537.1,70.3,536.7,69.6,535.9z
		 M74.3,532.7v-9.9c0-1.2-0.5-1.8-1.5-1.8s-1.5,0.6-1.5,1.8v9.9c0,1.2,0.5,1.8,1.5,1.8S74.3,533.9,74.3,532.7z"/>
	<path class="st0" d="M80.1,535.9c-0.7-0.8-1.1-1.9-1.1-3.4v-13.9h2.9v14.1c0,0.6,0.1,1.1,0.4,1.4c0.3,0.3,0.6,0.4,1.1,0.4
		s0.8-0.1,1.1-0.4c0.3-0.3,0.4-0.7,0.4-1.4v-14.1h2.8v13.9c0,1.5-0.4,2.6-1.1,3.4c-0.7,0.8-1.8,1.2-3.2,1.2S80.8,536.7,80.1,535.9z"
		/>
	<path class="st0" d="M89.5,518.6h4.2c1.5,0,2.5,0.3,3.2,1s1,1.7,1,3.2v1.1c0,1.9-0.6,3.1-1.9,3.6v0.1c0.7,0.2,1.2,0.6,1.5,1.3
		c0.3,0.6,0.4,1.5,0.4,2.6v3.2c0,0.5,0,0.9,0.1,1.3c0,0.3,0.1,0.6,0.3,0.9h-2.9c-0.1-0.3-0.2-0.6-0.2-0.8s-0.1-0.7-0.1-1.4v-3.3
		c0-0.8-0.1-1.4-0.4-1.7S94,529,93.4,529h-1v7.8h-2.9V518.6z M93.4,526.4c0.6,0,1-0.1,1.3-0.4s0.4-0.8,0.4-1.5v-1.4
		c0-0.7-0.1-1.1-0.4-1.4c-0.2-0.3-0.6-0.4-1.1-0.4h-1.3v5.2L93.4,526.4L93.4,526.4z"/>
	<path class="st0" d="M99.6,526.4h5.7v2.6h-5.7V526.4z"/>
	<path class="st0" d="M107.9,535.9c-0.7-0.8-1.1-1.9-1.1-3.4v-9.6c0-1.5,0.4-2.6,1.1-3.4c0.7-0.8,1.8-1.2,3.2-1.2
		c1.4,0,2.5,0.4,3.2,1.2s1.1,1.9,1.1,3.4v9.6c0,1.5-0.4,2.6-1.1,3.4c-0.7,0.8-1.8,1.2-3.2,1.2C109.8,537.1,108.7,536.7,107.9,535.9z
		 M112.6,532.7v-9.9c0-1.2-0.5-1.8-1.5-1.8s-1.5,0.6-1.5,1.8v9.9c0,1.2,0.5,1.8,1.5,1.8S112.6,533.9,112.6,532.7z"/>
	<path class="st0" d="M117.4,518.6h7.6v2.6h-4.7v5.1h3.7v2.6h-3.7v7.9h-2.9V518.6z"/>
	<path class="st0" d="M126,526.4h5.7v2.6H126V526.4z"/>
	<path class="st0" d="M135.4,518.6h3.9l3,18.2h-2.9l-0.5-3.6v0.1h-3.3l-0.5,3.6h-2.7L135.4,518.6z M138.5,530.8l-1.3-9h-0.1l-1.2,9
		H138.5z"/>
	<path class="st0" d="M143.2,526.4h5.7v2.6h-5.7V526.4z"/>
	<path class="st0" d="M150.6,518.6h2.9v7.7l3.6-7.7h2.9l-3.4,6.7l3.5,11.5h-3l-2.4-8.1l-1.1,2.3v5.8h-2.9v-18.2H150.6z"/>
	<path class="st0" d="M161.4,518.6h2.9v18.2h-2.9V518.6z"/>
	<path class="st0" d="M166.4,518.6h3.6l2.8,10.9h0.1v-10.9h2.5v18.2h-2.9l-3.4-13.3H169v13.3h-2.5v-18.2H166.4z"/>
	<path class="st0" d="M177.5,518.6h4.4c1.4,0,2.5,0.4,3.2,1.1s1.1,1.9,1.1,3.4v9.2c0,1.5-0.4,2.6-1.1,3.4s-1.8,1.1-3.2,1.1h-4.4
		V518.6z M181.8,534.2c0.5,0,0.8-0.1,1.1-0.4s0.4-0.7,0.4-1.4V523c0-0.6-0.1-1.1-0.4-1.4s-0.6-0.4-1.1-0.4h-1.5v13L181.8,534.2
		L181.8,534.2z"/>
	<path class="st0" d="M195.3,528.7h-3.5v-2h3.5v-3.5h2v3.5h3.5v2h-3.5v3.6h-2V528.7z"/>
	<path class="st0" d="M208.9,518.6h3.9l3,18.2h-2.9l-0.5-3.6v0.1h-3.3l-0.5,3.6H206L208.9,518.6z M212.1,530.8l-1.3-9h-0.1l-1.2,9
		H212.1z"/>
	<path class="st0" d="M221.3,518.6h4.2c1.4,0,2.5,0.4,3.2,1.1s1.1,1.9,1.1,3.4v1.8c0,1.5-0.4,2.6-1.1,3.4s-1.8,1.1-3.2,1.1h-1.4v7.4
		h-2.9L221.3,518.6L221.3,518.6z M225.5,526.8c0.5,0,0.8-0.1,1.1-0.4c0.2-0.3,0.4-0.7,0.4-1.3v-2.2c0-0.6-0.1-1.1-0.4-1.3
		s-0.6-0.4-1.1-0.4h-1.4v5.6L225.5,526.8L225.5,526.8z"/>
	<path class="st0" d="M233.3,518.6h3.9l3,18.2h-2.9l-0.5-3.6v0.1h-3.3l-0.5,3.6h-2.7L233.3,518.6z M236.4,530.8l-1.3-9H235l-1.2,9
		H236.4z"/>
	<path class="st0" d="M241.5,518.6h2.9v18.2h-2.9V518.6z"/>
	<path class="st0" d="M246.5,518.6h4.2c1.5,0,2.5,0.3,3.2,1s1,1.7,1,3.2v1.1c0,1.9-0.6,3.1-1.9,3.6v0.1c0.7,0.2,1.2,0.6,1.5,1.3
		c0.3,0.6,0.4,1.5,0.4,2.6v3.2c0,0.5,0,0.9,0.1,1.3c0,0.3,0.1,0.6,0.3,0.9h-2.9c-0.1-0.3-0.2-0.6-0.2-0.8s-0.1-0.7-0.1-1.4v-3.3
		c0-0.8-0.1-1.4-0.4-1.7s-0.7-0.5-1.4-0.5h-1v7.8h-2.9L246.5,518.6L246.5,518.6z M250.4,526.4c0.6,0,1-0.1,1.3-0.4s0.4-0.8,0.4-1.5
		v-1.4c0-0.7-0.1-1.1-0.4-1.4c-0.2-0.3-0.6-0.4-1.1-0.4h-1.3v5.2L250.4,526.4L250.4,526.4z"/>
</g>
<g>
	<path class="st0" d="M137.9,298.8c-0.7-0.8-1.1-1.9-1.1-3.4V294h2.7v1.6c0,1.2,0.5,1.8,1.5,1.8c0.5,0,0.9-0.2,1.1-0.5
		c0.3-0.3,0.4-0.8,0.4-1.6v-1.5c0-0.8-0.1-1.4-0.4-1.8c-0.3-0.4-0.8-0.5-1.4-0.5h-1V289h1c0.6,0,1-0.1,1.3-0.4s0.4-0.8,0.4-1.5v-1.3
		c0-0.6-0.1-1.1-0.4-1.4c-0.3-0.3-0.6-0.4-1-0.4c-0.9,0-1.4,0.6-1.4,1.7v1.2h-2.7v-1c0-1.5,0.4-2.6,1.1-3.4c0.7-0.8,1.8-1.2,3.1-1.2
		c1.4,0,2.4,0.4,3.1,1.2c0.7,0.8,1.1,1.9,1.1,3.3v0.6c0,1-0.2,1.8-0.5,2.4s-0.8,1-1.5,1.3v0.1c0.7,0.3,1.3,0.7,1.6,1.4
		s0.5,1.4,0.5,2.4v1.6c0,1.5-0.4,2.6-1.1,3.3c-0.7,0.8-1.8,1.2-3.2,1.2S138.6,299.6,137.9,298.8z"/>
	<path class="st0" d="M148.3,298.8c-0.7-0.8-1.1-1.9-1.1-3.4v-9.6c0-1.5,0.4-2.6,1.1-3.4c0.7-0.8,1.8-1.2,3.2-1.2s2.5,0.4,3.2,1.2
		c0.7,0.8,1.1,1.9,1.1,3.4v9.6c0,1.5-0.4,2.6-1.1,3.4c-0.7,0.8-1.8,1.2-3.2,1.2S149.1,299.6,148.3,298.8z M153,295.6v-9.9
		c0-1.2-0.5-1.8-1.5-1.8s-1.5,0.6-1.5,1.8v9.9c0,1.2,0.5,1.8,1.5,1.8S153,296.8,153,295.6z"/>
	<path class="st0" d="M158.7,298.8c-0.7-0.8-1.1-1.9-1.1-3.4v-9.6c0-1.5,0.4-2.6,1.1-3.4c0.7-0.8,1.8-1.2,3.2-1.2s2.5,0.4,3.2,1.2
		c0.7,0.8,1.1,1.9,1.1,3.4v9.6c0,1.5-0.4,2.6-1.1,3.4c-0.7,0.8-1.8,1.2-3.2,1.2S159.5,299.6,158.7,298.8z M163.4,295.6v-9.9
		c0-1.2-0.5-1.8-1.5-1.8s-1.5,0.6-1.5,1.8v9.9c0,1.2,0.5,1.8,1.5,1.8S163.4,296.8,163.4,295.6z"/>
</g>
<g>
	<path class="st0" d="M141.8,355.5h-5.5v-2.6l5.2-12.3h3.1v12.3h1.4v2.6h-1.4v3.3h-2.9L141.8,355.5L141.8,355.5z M141.8,352.9v-7.1
		h-0.1l-2.8,7.1H141.8z"/>
	<path class="st0" d="M148.3,357.9c-0.7-0.8-1.1-1.9-1.1-3.4v-9.6c0-1.5,0.4-2.6,1.1-3.4c0.7-0.8,1.8-1.2,3.2-1.2s2.5,0.4,3.2,1.2
		c0.7,0.8,1.1,1.9,1.1,3.4v9.6c0,1.5-0.4,2.6-1.1,3.4c-0.7,0.8-1.8,1.2-3.2,1.2S149.1,358.7,148.3,357.9z M153,354.7v-9.9
		c0-1.2-0.5-1.8-1.5-1.8s-1.5,0.6-1.5,1.8v9.9c0,1.2,0.5,1.8,1.5,1.8S153,355.9,153,354.7z"/>
	<path class="st0" d="M158.7,357.9c-0.7-0.8-1.1-1.9-1.1-3.4v-9.6c0-1.5,0.4-2.6,1.1-3.4c0.7-0.8,1.8-1.2,3.2-1.2s2.5,0.4,3.2,1.2
		c0.7,0.8,1.1,1.9,1.1,3.4v9.6c0,1.5-0.4,2.6-1.1,3.4c-0.7,0.8-1.8,1.2-3.2,1.2S159.5,358.7,158.7,357.9z M163.4,354.7v-9.9
		c0-1.2-0.5-1.8-1.5-1.8s-1.5,0.6-1.5,1.8v9.9c0,1.2,0.5,1.8,1.5,1.8S163.4,355.9,163.4,354.7z"/>
</g>
<g>
	<path class="st0" d="M138,414.1c-0.7-0.8-1.1-1.9-1.1-3.4v-1.4h2.7v1.6c0,1.2,0.5,1.8,1.5,1.8s1.5-0.6,1.5-1.8v-4.1
		c0-1.2-0.5-1.8-1.5-1.8s-1.5,0.6-1.5,1.8v0.2h-2.7l0.5-10.2h7.5v2.6h-5l-0.2,4.3h0.1c0.5-0.9,1.4-1.3,2.5-1.3c1,0,1.8,0.4,2.4,1.1
		s0.8,1.7,0.8,3.1v4.1c0,1.5-0.4,2.6-1.1,3.4c-0.7,0.8-1.8,1.2-3.2,1.2S138.7,414.9,138,414.1z"/>
	<path class="st0" d="M148.3,414.1c-0.7-0.8-1.1-1.9-1.1-3.4v-9.6c0-1.5,0.4-2.6,1.1-3.4c0.7-0.8,1.8-1.2,3.2-1.2s2.5,0.4,3.2,1.2
		c0.7,0.8,1.1,1.9,1.1,3.4v9.6c0,1.5-0.4,2.6-1.1,3.4c-0.7,0.8-1.8,1.2-3.2,1.2C150.1,415.3,149.1,414.9,148.3,414.1z M153,410.9
		V401c0-1.2-0.5-1.8-1.5-1.8s-1.5,0.6-1.5,1.8v9.9c0,1.2,0.5,1.8,1.5,1.8S153,412.1,153,410.9z"/>
	<path class="st0" d="M158.7,414.1c-0.7-0.8-1.1-1.9-1.1-3.4v-9.6c0-1.5,0.4-2.6,1.1-3.4c0.7-0.8,1.8-1.2,3.2-1.2s2.5,0.4,3.2,1.2
		c0.7,0.8,1.1,1.9,1.1,3.4v9.6c0,1.5-0.4,2.6-1.1,3.4c-0.7,0.8-1.8,1.2-3.2,1.2C160.5,415.3,159.5,414.9,158.7,414.1z M163.4,410.9
		V401c0-1.2-0.5-1.8-1.5-1.8s-1.5,0.6-1.5,1.8v9.9c0,1.2,0.5,1.8,1.5,1.8S163.4,412.1,163.4,410.9z"/>
</g>
<g>
	<path class="st0" d="M138,471.7c-0.7-0.8-1.1-1.9-1.1-3.4v-9.4c0-3.2,1.5-4.7,4.4-4.7c1.4,0,2.4,0.4,3.2,1.2
		c0.7,0.8,1.1,1.9,1.1,3.4v0.3h-2.7v-0.5c0-1.2-0.5-1.8-1.5-1.8c-0.5,0-0.9,0.2-1.2,0.5s-0.4,0.9-0.4,1.7v3.5h0.1
		c0.5-1.1,1.4-1.6,2.6-1.6c1,0,1.8,0.4,2.4,1.1c0.5,0.7,0.8,1.7,0.8,3.1v3.3c0,1.5-0.4,2.6-1.1,3.4c-0.7,0.8-1.8,1.2-3.2,1.2
		C139.8,472.9,138.7,472.5,138,471.7z M142.7,468.6v-3.2c0-1.2-0.5-1.8-1.5-1.8s-1.5,0.6-1.5,1.8v3.2c0,1.2,0.5,1.8,1.5,1.8
		C142.2,470.3,142.7,469.7,142.7,468.6z"/>
	<path class="st0" d="M148.3,471.7c-0.7-0.8-1.1-1.9-1.1-3.4v-9.6c0-1.5,0.4-2.6,1.1-3.4c0.7-0.8,1.8-1.2,3.2-1.2s2.5,0.4,3.2,1.2
		c0.7,0.8,1.1,1.9,1.1,3.4v9.6c0,1.5-0.4,2.6-1.1,3.4c-0.7,0.8-1.8,1.2-3.2,1.2C150.1,472.9,149.1,472.5,148.3,471.7z M153,468.5
		v-9.9c0-1.2-0.5-1.8-1.5-1.8s-1.5,0.6-1.5,1.8v9.9c0,1.2,0.5,1.8,1.5,1.8S153,469.7,153,468.5z"/>
	<path class="st0" d="M158.7,471.7c-0.7-0.8-1.1-1.9-1.1-3.4v-9.6c0-1.5,0.4-2.6,1.1-3.4c0.7-0.8,1.8-1.2,3.2-1.2s2.5,0.4,3.2,1.2
		c0.7,0.8,1.1,1.9,1.1,3.4v9.6c0,1.5-0.4,2.6-1.1,3.4c-0.7,0.8-1.8,1.2-3.2,1.2C160.5,472.9,159.5,472.5,158.7,471.7z M163.4,468.5
		v-9.9c0-1.2-0.5-1.8-1.5-1.8s-1.5,0.6-1.5,1.8v9.9c0,1.2,0.5,1.8,1.5,1.8S163.4,469.7,163.4,468.5z"/>
</g>
<g>
	<path class="st0" d="M137,240.1c0-1.3,0.2-2.4,0.6-3.3s1.2-2,2.2-3.1c1.1-1.1,1.8-2.1,2.2-2.9c0.4-0.8,0.6-1.6,0.6-2.5
		c0-0.8-0.1-1.3-0.4-1.6s-0.6-0.5-1.1-0.5c-1,0-1.5,0.6-1.5,1.8v1.9H137v-1.8c0-1.5,0.4-2.6,1.1-3.4c0.7-0.8,1.8-1.2,3.2-1.2
		s2.4,0.4,3.2,1.2c0.7,0.8,1.1,1.9,1.1,3.4c0,1.1-0.3,2.2-0.8,3.3s-1.4,2.3-2.7,3.6c-0.8,0.9-1.4,1.6-1.7,2.2
		c-0.3,0.6-0.4,1.2-0.4,1.8v0.4h5.4v2.6H137V240.1z"/>
	<path class="st0" d="M148.3,241.2c-0.7-0.8-1.1-1.9-1.1-3.4v-9.6c0-1.5,0.4-2.6,1.1-3.4c0.7-0.8,1.8-1.2,3.2-1.2s2.5,0.4,3.2,1.2
		s1.1,1.9,1.1,3.4v9.6c0,1.5-0.4,2.6-1.1,3.4c-0.7,0.8-1.8,1.2-3.2,1.2S149.1,242,148.3,241.2z M153,238v-10c0-1.2-0.5-1.8-1.5-1.8
		s-1.5,0.6-1.5,1.8v9.9c0,1.2,0.5,1.8,1.5,1.8S153,239.2,153,238z"/>
	<path class="st0" d="M158.7,241.2c-0.7-0.8-1.1-1.9-1.1-3.4v-9.6c0-1.5,0.4-2.6,1.1-3.4c0.7-0.8,1.8-1.2,3.2-1.2s2.5,0.4,3.2,1.2
		s1.1,1.9,1.1,3.4v9.6c0,1.5-0.4,2.6-1.1,3.4c-0.7,0.8-1.8,1.2-3.2,1.2S159.5,242,158.7,241.2z M163.4,238v-10
		c0-1.2-0.5-1.8-1.5-1.8s-1.5,0.6-1.5,1.8v9.9c0,1.2,0.5,1.8,1.5,1.8S163.4,239.2,163.4,238z"/>
</g>
</svg>
